<mxfile host="app.diagrams.net" agent="Mozilla/5.0 (Windows NT 10.0; Win64; x64) AppleWebKit/537.36 (KHTML, like Gecko) Chrome/131.0.0.0 Safari/537.36" version="24.8.6" pages="2">
  <diagram name="Page-1" id="xzrCBXAtFtzomiUUfQ9m">
    <mxGraphModel dx="2940" dy="2500" grid="1" gridSize="10" guides="1" tooltips="1" connect="1" arrows="1" fold="1" page="1" pageScale="1" pageWidth="900" pageHeight="600" math="0" shadow="0">
      <root>
        <mxCell id="0" />
        <mxCell id="1" parent="0" />
        <mxCell id="2rgmVPee00Ddnv6rnugR-1" value="Instructor" style="html=1;overflow=block;blockSpacing=1;swimlane;childLayout=stackLayout;horizontal=1;horizontalStack=0;resizeParent=1;resizeParentMax=0;resizeLast=0;collapsible=0;fontStyle=0;marginBottom=0;swimlaneFillColor=#ffffff;startSize=50;whiteSpace=wrap;fontSize=13;align=left;spacing=0;strokeColor=#282c33;strokeOpacity=100;fillOpacity=100;rounded=1;absoluteArcSize=1;arcSize=9;fillColor=#ffffff;strokeWidth=1.5;" vertex="1" parent="1">
          <mxGeometry x="180" y="60" width="330" height="708" as="geometry" />
        </mxCell>
        <mxCell id="2rgmVPee00Ddnv6rnugR-2" value="&lt;div style=&quot;display: flex; justify-content: null; text-align: null; align-items: baseline; font-size: 0; line-height: 1.25;margin-top: -2px;&quot;&gt;&lt;span&gt;&lt;span style=&quot;font-size:13px;&quot;&gt;- taughtCourses: []Course&#xa;&lt;/span&gt;&lt;/span&gt;&lt;/div&gt;&lt;div style=&quot;display: flex; justify-content: null; text-align: null; align-items: baseline; font-size: 0; line-height: 1.25;margin-top: -2px;&quot;&gt;&lt;span&gt;&lt;span style=&quot;font-size:13px;&quot;&gt;- department: String&lt;/span&gt;&lt;/span&gt;&lt;/div&gt;" style="part=1;html=1;resizeHeight=0;strokeColor=none;fillColor=none;align=left;verticalAlign=middle;spacingLeft=4;spacingRight=4;overflow=hidden;rotatable=0;points=[[0,0.5],[1,0.5]];portConstraint=eastwest;swimlaneFillColor=#ffffff;strokeOpacity=100;fillOpacity=100;whiteSpace=wrap;fontSize=13;" vertex="1" parent="2rgmVPee00Ddnv6rnugR-1">
          <mxGeometry y="50" width="330" height="90" as="geometry" />
        </mxCell>
        <mxCell id="2rgmVPee00Ddnv6rnugR-3" value="" style="line;strokeWidth=1;fillColor=none;align=left;verticalAlign=middle;spacingTop=-1;spacingLeft=3;spacingRight=3;rotatable=0;labelPosition=right;points=[];portConstraint=eastwest;" vertex="1" parent="2rgmVPee00Ddnv6rnugR-1">
          <mxGeometry y="140" width="330" height="8" as="geometry" />
        </mxCell>
        <mxCell id="2rgmVPee00Ddnv6rnugR-4" value="&lt;div style=&quot;display: flex; justify-content: null; text-align: null; align-items: baseline; font-size: 0; line-height: 1.25;margin-top: -2px;&quot;&gt;&lt;span&gt;&lt;span style=&quot;font-size:13px;&quot;&gt;+ addCourse(String name, String description, Instructor instructor) : Course&#xa;&lt;/span&gt;&lt;/span&gt;&lt;/div&gt;&lt;div style=&quot;display: flex; justify-content: null; text-align: null; align-items: baseline; font-size: 0; line-height: 1.25;margin-top: -2px;&quot;&gt;&lt;span&gt;&lt;span style=&quot;font-size:13px;&quot;&gt;+ updateCourse(Course course, String name, String description) : void &#xa;&lt;/span&gt;&lt;/span&gt;&lt;/div&gt;&lt;div style=&quot;display: flex; justify-content: null; text-align: null; align-items: baseline; font-size: 0; line-height: 1.25;margin-top: -2px;&quot;&gt;&lt;span&gt;&lt;span style=&quot;font-size:13px;&quot;&gt;+ deleteCourse(Course course) : void &#xa;&lt;/span&gt;&lt;/span&gt;&lt;/div&gt;&lt;div style=&quot;display: flex; justify-content: null; text-align: null; align-items: baseline; font-size: 0; line-height: 1.25;margin-top: -2px;&quot;&gt;&lt;span&gt;&lt;span style=&quot;font-size:13px;&quot;&gt;+ searchCourse() : Course&#xa;&lt;/span&gt;&lt;/span&gt;&lt;/div&gt;&lt;div style=&quot;display: flex; justify-content: null; text-align: null; align-items: baseline; font-size: 0; line-height: 1.25;margin-top: -2px;&quot;&gt;&lt;span&gt;&lt;span style=&quot;font-size:13px;&quot;&gt;&#xa;&lt;/span&gt;&lt;/span&gt;&lt;/div&gt;&lt;div style=&quot;display: flex; justify-content: null; text-align: null; align-items: baseline; font-size: 0; line-height: 1.25;margin-top: -2px;&quot;&gt;&lt;span&gt;&lt;span style=&quot;font-size:13px;&quot;&gt;+ getTaughtCourses: []Course&#xa;&lt;/span&gt;&lt;/span&gt;&lt;/div&gt;&lt;div style=&quot;display: flex; justify-content: null; text-align: null; align-items: baseline; font-size: 0; line-height: 1.25;margin-top: -2px;&quot;&gt;&lt;span&gt;&lt;span style=&quot;font-size:13px;&quot;&gt;+ getDepartment: String&#xa;&lt;/span&gt;&lt;/span&gt;&lt;/div&gt;&lt;div style=&quot;display: flex; justify-content: null; text-align: null; align-items: baseline; font-size: 0; line-height: 1.25;margin-top: -2px;&quot;&gt;&lt;span&gt;&lt;span style=&quot;font-size:13px;&quot;&gt;+ setTaughtCourses: []Course&#xa;&lt;/span&gt;&lt;/span&gt;&lt;/div&gt;&lt;div style=&quot;display: flex; justify-content: null; text-align: null; align-items: baseline; font-size: 0; line-height: 1.25;margin-top: -2px;&quot;&gt;&lt;span&gt;&lt;span style=&quot;font-size:13px;&quot;&gt;+ setDepartment: String&#xa;&lt;/span&gt;&lt;/span&gt;&lt;/div&gt;&lt;div style=&quot;display: flex; justify-content: null; text-align: null; align-items: baseline; font-size: 0; line-height: 1.25;margin-top: -2px;&quot;&gt;&lt;span&gt;&lt;span style=&quot;font-size:13px;&quot;&gt;+ changeLanguage() : void&#xa;&lt;/span&gt;&lt;/span&gt;&lt;/div&gt;&lt;div style=&quot;display: flex; justify-content: null; text-align: null; align-items: baseline; font-size: 0; line-height: 1.25;margin-top: -2px;&quot;&gt;&lt;span&gt;&lt;span style=&quot;font-size:13px;&quot;&gt;+ changeProfilePic() : void&#xa;&lt;/span&gt;&lt;/span&gt;&lt;/div&gt;&lt;div style=&quot;display: flex; justify-content: null; text-align: null; align-items: baseline; font-size: 0; line-height: 1.25;margin-top: -2px;&quot;&gt;&lt;span&gt;&lt;span style=&quot;font-size:13px;&quot;&gt;+ forgetPass(String username) : void&#xa;&lt;/span&gt;&lt;/span&gt;&lt;/div&gt;&lt;div style=&quot;display: flex; justify-content: null; text-align: null; align-items: baseline; font-size: 0; line-height: 1.25;margin-top: -2px;&quot;&gt;&lt;span&gt;&lt;span style=&quot;font-size:13px;&quot;&gt;+ contactSupport()&#xa;&lt;/span&gt;&lt;/span&gt;&lt;/div&gt;&lt;div style=&quot;display: flex; justify-content: null; text-align: null; align-items: baseline; font-size: 0; line-height: 1.25;margin-top: -2px;&quot;&gt;&lt;span&gt;&lt;span style=&quot;font-size:13px;&quot;&gt;+ sendMessages(String message) : void&#xa;&lt;/span&gt;&lt;/span&gt;&lt;/div&gt;&lt;div style=&quot;display: flex; justify-content: null; text-align: null; align-items: baseline; font-size: 0; line-height: 1.25;margin-top: -2px;&quot;&gt;&lt;span&gt;&lt;span style=&quot;font-size:13px;&quot;&gt;+ register(String username, String password) : void&#xa;&lt;/span&gt;&lt;/span&gt;&lt;/div&gt;&lt;div style=&quot;display: flex; justify-content: null; text-align: null; align-items: baseline; font-size: 0; line-height: 1.25;margin-top: -2px;&quot;&gt;&lt;span&gt;&lt;span style=&quot;font-size:13px;&quot;&gt;+ login(String username, String password) : void&#xa;&lt;/span&gt;&lt;/span&gt;&lt;/div&gt;&lt;div style=&quot;display: flex; justify-content: null; text-align: null; align-items: baseline; font-size: 0; line-height: 1.25;margin-top: -2px;&quot;&gt;&lt;span&gt;&lt;span style=&quot;font-size:13px;&quot;&gt;+ handleClick() : void&#xa;&lt;/span&gt;&lt;/span&gt;&lt;/div&gt;&lt;div style=&quot;display: flex; justify-content: null; text-align: null; align-items: baseline; font-size: 0; line-height: 1.25;margin-top: -2px;&quot;&gt;&lt;span&gt;&lt;span style=&quot;font-size:13px;&quot;&gt;+ logout() : void&#xa;&lt;/span&gt;&lt;/span&gt;&lt;/div&gt;&lt;div style=&quot;display: flex; justify-content: null; text-align: null; align-items: baseline; font-size: 0; line-height: 1.25;margin-top: -2px;&quot;&gt;&lt;span&gt;&lt;span style=&quot;font-size:13px;&quot;&gt;+ viewCourses() : void&#xa;&lt;/span&gt;&lt;/span&gt;&lt;/div&gt;&lt;div style=&quot;display: flex; justify-content: null; text-align: null; align-items: baseline; font-size: 0; line-height: 1.25;margin-top: -2px;&quot;&gt;&lt;span&gt;&lt;span style=&quot;font-size:13px;&quot;&gt;+ viewGrade() : void&#xa;&lt;/span&gt;&lt;/span&gt;&lt;/div&gt;&lt;div style=&quot;display: flex; justify-content: null; text-align: null; align-items: baseline; font-size: 0; line-height: 1.25;margin-top: -2px;&quot;&gt;&lt;span&gt;&lt;span style=&quot;font-size:13px;&quot;&gt;&#xa;&lt;/span&gt;&lt;/span&gt;&lt;/div&gt;&lt;div style=&quot;display: flex; justify-content: null; text-align: null; align-items: baseline; font-size: 0; line-height: 1.25;margin-top: -2px;&quot;&gt;&lt;span&gt;&lt;span style=&quot;font-size:13px;&quot;&gt;+ getId() : int&#xa;&lt;/span&gt;&lt;/span&gt;&lt;/div&gt;&lt;div style=&quot;display: flex; justify-content: null; text-align: null; align-items: baseline; font-size: 0; line-height: 1.25;margin-top: -2px;&quot;&gt;&lt;span&gt;&lt;span style=&quot;font-size:13px;&quot;&gt;+ getUsername() : String&#xa;&lt;/span&gt;&lt;/span&gt;&lt;/div&gt;&lt;div style=&quot;display: flex; justify-content: null; text-align: null; align-items: baseline; font-size: 0; line-height: 1.25;margin-top: -2px;&quot;&gt;&lt;span&gt;&lt;span style=&quot;font-size:13px;&quot;&gt;+ getName() : String&#xa;&lt;/span&gt;&lt;/span&gt;&lt;/div&gt;&lt;div style=&quot;display: flex; justify-content: null; text-align: null; align-items: baseline; font-size: 0; line-height: 1.25;margin-top: -2px;&quot;&gt;&lt;span&gt;&lt;span style=&quot;font-size:13px;&quot;&gt;+ getPassword() : String&#xa;&lt;/span&gt;&lt;/span&gt;&lt;/div&gt;&lt;div style=&quot;display: flex; justify-content: null; text-align: null; align-items: baseline; font-size: 0; line-height: 1.25;margin-top: -2px;&quot;&gt;&lt;span&gt;&lt;span style=&quot;font-size:13px;&quot;&gt;+ getRole() : String&#xa;&lt;/span&gt;&lt;/span&gt;&lt;/div&gt;&lt;div style=&quot;display: flex; justify-content: null; text-align: null; align-items: baseline; font-size: 0; line-height: 1.25;margin-top: -2px;&quot;&gt;&lt;span&gt;&lt;span style=&quot;font-size:13px;&quot;&gt;+ getDateOfBirth() : Date&#xa;&lt;/span&gt;&lt;/span&gt;&lt;/div&gt;&lt;div style=&quot;display: flex; justify-content: null; text-align: null; align-items: baseline; font-size: 0; line-height: 1.25;margin-top: -2px;&quot;&gt;&lt;span&gt;&lt;span style=&quot;font-size:13px;&quot;&gt;+ getEmail() : String&#xa;&lt;/span&gt;&lt;/span&gt;&lt;/div&gt;&lt;div style=&quot;display: flex; justify-content: null; text-align: null; align-items: baseline; font-size: 0; line-height: 1.25;margin-top: -2px;&quot;&gt;&lt;span&gt;&lt;span style=&quot;font-size:13px;&quot;&gt;+ setId() : int&#xa;&lt;/span&gt;&lt;/span&gt;&lt;/div&gt;&lt;div style=&quot;display: flex; justify-content: null; text-align: null; align-items: baseline; font-size: 0; line-height: 1.25;margin-top: -2px;&quot;&gt;&lt;span&gt;&lt;span style=&quot;font-size:13px;&quot;&gt;+ setUsername() : String&#xa;&lt;/span&gt;&lt;/span&gt;&lt;/div&gt;&lt;div style=&quot;display: flex; justify-content: null; text-align: null; align-items: baseline; font-size: 0; line-height: 1.25;margin-top: -2px;&quot;&gt;&lt;span&gt;&lt;span style=&quot;font-size:13px;&quot;&gt;+ setName() : String&#xa;&lt;/span&gt;&lt;/span&gt;&lt;/div&gt;&lt;div style=&quot;display: flex; justify-content: null; text-align: null; align-items: baseline; font-size: 0; line-height: 1.25;margin-top: -2px;&quot;&gt;&lt;span&gt;&lt;span style=&quot;font-size:13px;&quot;&gt;+ setPassword() : String&#xa;&lt;/span&gt;&lt;/span&gt;&lt;/div&gt;&lt;div style=&quot;display: flex; justify-content: null; text-align: null; align-items: baseline; font-size: 0; line-height: 1.25;margin-top: -2px;&quot;&gt;&lt;span&gt;&lt;span style=&quot;font-size:13px;&quot;&gt;+ setRole() : String&#xa;&lt;/span&gt;&lt;/span&gt;&lt;/div&gt;&lt;div style=&quot;display: flex; justify-content: null; text-align: null; align-items: baseline; font-size: 0; line-height: 1.25;margin-top: -2px;&quot;&gt;&lt;span&gt;&lt;span style=&quot;font-size:13px;&quot;&gt;+ setDateOfBirth() : Date&#xa;&lt;/span&gt;&lt;/span&gt;&lt;/div&gt;&lt;div style=&quot;display: flex; justify-content: null; text-align: null; align-items: baseline; font-size: 0; line-height: 1.25;margin-top: -2px;&quot;&gt;&lt;span&gt;&lt;span style=&quot;font-size:13px;&quot;&gt;+ setEmail() : String&#xa;&lt;/span&gt;&lt;/span&gt;&lt;/div&gt;&lt;div style=&quot;display: flex; justify-content: center; text-align: center; align-items: baseline; font-size: 0; line-height: 1.25;margin-top: -2px;&quot;&gt;&lt;span&gt;&lt;/span&gt;&lt;/div&gt;" style="part=1;resizeHeight=0;strokeColor=none;fillColor=none;align=left;verticalAlign=middle;spacingLeft=4;spacingRight=4;rotatable=0;points=[[0,0.5],[1,0.5]];portConstraint=eastwest;swimlaneFillColor=#ffffff;strokeOpacity=100;fillOpacity=100;whiteSpace=wrap;overflow=block;blockSpacing=1;html=1;fontSize=13;" vertex="1" parent="2rgmVPee00Ddnv6rnugR-1">
          <mxGeometry y="148" width="330" height="560" as="geometry" />
        </mxCell>
        <mxCell id="2rgmVPee00Ddnv6rnugR-5" value="Student" style="html=1;overflow=block;blockSpacing=1;swimlane;childLayout=stackLayout;horizontal=1;horizontalStack=0;resizeParent=1;resizeParentMax=0;resizeLast=0;collapsible=0;fontStyle=0;marginBottom=0;swimlaneFillColor=#ffffff;startSize=25;whiteSpace=wrap;fontSize=13;align=left;spacing=0;strokeColor=#282c33;strokeOpacity=100;fillOpacity=100;rounded=1;absoluteArcSize=1;arcSize=9;fillColor=#ffffff;strokeWidth=1.5;" vertex="1" parent="1">
          <mxGeometry x="210" y="-660" width="330" height="649.25" as="geometry" />
        </mxCell>
        <mxCell id="2rgmVPee00Ddnv6rnugR-6" value="&lt;div style=&quot;display: flex; justify-content: null; text-align: null; align-items: baseline; font-size: 0; line-height: 1.25;margin-top: -2px;&quot;&gt;&lt;span&gt;&lt;span style=&quot;font-size:13px;&quot;&gt;- studentId: int&#xa;&lt;/span&gt;&lt;/span&gt;&lt;/div&gt;&lt;div style=&quot;display: flex; justify-content: null; text-align: null; align-items: baseline; font-size: 0; line-height: 1.25;margin-top: -2px;&quot;&gt;&lt;span&gt;&lt;span style=&quot;font-size:13px;&quot;&gt;- enrolledCourses: []Courses&lt;/span&gt;&lt;/span&gt;&lt;/div&gt;" style="part=1;html=1;resizeHeight=0;strokeColor=none;fillColor=none;align=left;verticalAlign=middle;spacingLeft=4;spacingRight=4;overflow=hidden;rotatable=0;points=[[0,0.5],[1,0.5]];portConstraint=eastwest;swimlaneFillColor=#ffffff;strokeOpacity=100;fillOpacity=100;whiteSpace=wrap;fontSize=13;" vertex="1" parent="2rgmVPee00Ddnv6rnugR-5">
          <mxGeometry y="25" width="330" height="117" as="geometry" />
        </mxCell>
        <mxCell id="2rgmVPee00Ddnv6rnugR-7" value="" style="line;strokeWidth=1;fillColor=none;align=left;verticalAlign=middle;spacingTop=-1;spacingLeft=3;spacingRight=3;rotatable=0;labelPosition=right;points=[];portConstraint=eastwest;" vertex="1" parent="2rgmVPee00Ddnv6rnugR-5">
          <mxGeometry y="142" width="330" height="8" as="geometry" />
        </mxCell>
        <mxCell id="2rgmVPee00Ddnv6rnugR-8" value="&lt;div style=&quot;display: flex; justify-content: null; text-align: null; align-items: baseline; font-size: 0; line-height: 1.25;margin-top: -2px;&quot;&gt;&lt;span&gt;&lt;span style=&quot;font-size:13px;&quot;&gt;+ submitAssignment()&#xa;&lt;/span&gt;&lt;/span&gt;&lt;/div&gt;&lt;div style=&quot;display: flex; justify-content: null; text-align: null; align-items: baseline; font-size: 0; line-height: 1.25;margin-top: -2px;&quot;&gt;&lt;span&gt;&lt;span style=&quot;font-size:13px;&quot;&gt;&#xa;&lt;/span&gt;&lt;/span&gt;&lt;/div&gt;&lt;div style=&quot;display: flex; justify-content: null; text-align: null; align-items: baseline; font-size: 0; line-height: 1.25;margin-top: -2px;&quot;&gt;&lt;span&gt;&lt;span style=&quot;font-size:13px;&quot;&gt;+ getStudentId() : int&#xa;&lt;/span&gt;&lt;/span&gt;&lt;/div&gt;&lt;div style=&quot;display: flex; justify-content: null; text-align: null; align-items: baseline; font-size: 0; line-height: 1.25;margin-top: -2px;&quot;&gt;&lt;span&gt;&lt;span style=&quot;font-size:13px;&quot;&gt;+ getEnrolledCourses() : []Courses&#xa;&lt;/span&gt;&lt;/span&gt;&lt;/div&gt;&lt;div style=&quot;display: flex; justify-content: null; text-align: null; align-items: baseline; font-size: 0; line-height: 1.25;margin-top: -2px;&quot;&gt;&lt;span&gt;&lt;span style=&quot;font-size:13px;&quot;&gt;+ setStudentId() : int&#xa;&lt;/span&gt;&lt;/span&gt;&lt;/div&gt;&lt;div style=&quot;display: flex; justify-content: null; text-align: null; align-items: baseline; font-size: 0; line-height: 1.25;margin-top: -2px;&quot;&gt;&lt;span&gt;&lt;span style=&quot;font-size:13px;&quot;&gt;+ setEnrolledCourses() : []Courses&#xa;&lt;/span&gt;&lt;/span&gt;&lt;/div&gt;&lt;div style=&quot;display: flex; justify-content: null; text-align: null; align-items: baseline; font-size: 0; line-height: 1.25;margin-top: -2px;&quot;&gt;&lt;span&gt;&lt;span style=&quot;font-size:13px;&quot;&gt;+ changeLanguage() : void&#xa;&lt;/span&gt;&lt;/span&gt;&lt;/div&gt;&lt;div style=&quot;display: flex; justify-content: null; text-align: null; align-items: baseline; font-size: 0; line-height: 1.25;margin-top: -2px;&quot;&gt;&lt;span&gt;&lt;span style=&quot;font-size:13px;&quot;&gt;+ changeProfilePic() : void&#xa;&lt;/span&gt;&lt;/span&gt;&lt;/div&gt;&lt;div style=&quot;display: flex; justify-content: null; text-align: null; align-items: baseline; font-size: 0; line-height: 1.25;margin-top: -2px;&quot;&gt;&lt;span&gt;&lt;span style=&quot;font-size:13px;&quot;&gt;+ forgetPass(String username) : void&#xa;&lt;/span&gt;&lt;/span&gt;&lt;/div&gt;&lt;div style=&quot;display: flex; justify-content: null; text-align: null; align-items: baseline; font-size: 0; line-height: 1.25;margin-top: -2px;&quot;&gt;&lt;span&gt;&lt;span style=&quot;font-size:13px;&quot;&gt;+ contactSupport()&#xa;&lt;/span&gt;&lt;/span&gt;&lt;/div&gt;&lt;div style=&quot;display: flex; justify-content: null; text-align: null; align-items: baseline; font-size: 0; line-height: 1.25;margin-top: -2px;&quot;&gt;&lt;span&gt;&lt;span style=&quot;font-size:13px;&quot;&gt;+ sendMessages(String message) : void&#xa;&lt;/span&gt;&lt;/span&gt;&lt;/div&gt;&lt;div style=&quot;display: flex; justify-content: null; text-align: null; align-items: baseline; font-size: 0; line-height: 1.25;margin-top: -2px;&quot;&gt;&lt;span&gt;&lt;span style=&quot;font-size:13px;&quot;&gt;+ register(String username, String password) : void&#xa;&lt;/span&gt;&lt;/span&gt;&lt;/div&gt;&lt;div style=&quot;display: flex; justify-content: null; text-align: null; align-items: baseline; font-size: 0; line-height: 1.25;margin-top: -2px;&quot;&gt;&lt;span&gt;&lt;span style=&quot;font-size:13px;&quot;&gt;+ login(String username, String password) : void&#xa;&lt;/span&gt;&lt;/span&gt;&lt;/div&gt;&lt;div style=&quot;display: flex; justify-content: null; text-align: null; align-items: baseline; font-size: 0; line-height: 1.25;margin-top: -2px;&quot;&gt;&lt;span&gt;&lt;span style=&quot;font-size:13px;&quot;&gt;+ handleClick() : void&#xa;&lt;/span&gt;&lt;/span&gt;&lt;/div&gt;&lt;div style=&quot;display: flex; justify-content: null; text-align: null; align-items: baseline; font-size: 0; line-height: 1.25;margin-top: -2px;&quot;&gt;&lt;span&gt;&lt;span style=&quot;font-size:13px;&quot;&gt;+ logout() : void&#xa;&lt;/span&gt;&lt;/span&gt;&lt;/div&gt;&lt;div style=&quot;display: flex; justify-content: null; text-align: null; align-items: baseline; font-size: 0; line-height: 1.25;margin-top: -2px;&quot;&gt;&lt;span&gt;&lt;span style=&quot;font-size:13px;&quot;&gt;+ viewCourses() : void&#xa;&lt;/span&gt;&lt;/span&gt;&lt;/div&gt;&lt;div style=&quot;display: flex; justify-content: null; text-align: null; align-items: baseline; font-size: 0; line-height: 1.25;margin-top: -2px;&quot;&gt;&lt;span&gt;&lt;span style=&quot;font-size:13px;&quot;&gt;+ viewGrade() : void&#xa;&lt;/span&gt;&lt;/span&gt;&lt;/div&gt;&lt;div style=&quot;display: flex; justify-content: null; text-align: null; align-items: baseline; font-size: 0; line-height: 1.25;margin-top: -2px;&quot;&gt;&lt;span&gt;&lt;span style=&quot;font-size:13px;&quot;&gt;&#xa;&lt;/span&gt;&lt;/span&gt;&lt;/div&gt;&lt;div style=&quot;display: flex; justify-content: null; text-align: null; align-items: baseline; font-size: 0; line-height: 1.25;margin-top: -2px;&quot;&gt;&lt;span&gt;&lt;span style=&quot;font-size:13px;&quot;&gt;+ getId() : int&#xa;&lt;/span&gt;&lt;/span&gt;&lt;/div&gt;&lt;div style=&quot;display: flex; justify-content: null; text-align: null; align-items: baseline; font-size: 0; line-height: 1.25;margin-top: -2px;&quot;&gt;&lt;span&gt;&lt;span style=&quot;font-size:13px;&quot;&gt;+ getUsername() : String&#xa;&lt;/span&gt;&lt;/span&gt;&lt;/div&gt;&lt;div style=&quot;display: flex; justify-content: null; text-align: null; align-items: baseline; font-size: 0; line-height: 1.25;margin-top: -2px;&quot;&gt;&lt;span&gt;&lt;span style=&quot;font-size:13px;&quot;&gt;+ getName() : String&#xa;&lt;/span&gt;&lt;/span&gt;&lt;/div&gt;&lt;div style=&quot;display: flex; justify-content: null; text-align: null; align-items: baseline; font-size: 0; line-height: 1.25;margin-top: -2px;&quot;&gt;&lt;span&gt;&lt;span style=&quot;font-size:13px;&quot;&gt;+ getPassword() : String&#xa;&lt;/span&gt;&lt;/span&gt;&lt;/div&gt;&lt;div style=&quot;display: flex; justify-content: null; text-align: null; align-items: baseline; font-size: 0; line-height: 1.25;margin-top: -2px;&quot;&gt;&lt;span&gt;&lt;span style=&quot;font-size:13px;&quot;&gt;+ getRole() : String&#xa;&lt;/span&gt;&lt;/span&gt;&lt;/div&gt;&lt;div style=&quot;display: flex; justify-content: null; text-align: null; align-items: baseline; font-size: 0; line-height: 1.25;margin-top: -2px;&quot;&gt;&lt;span&gt;&lt;span style=&quot;font-size:13px;&quot;&gt;+ getDateOfBirth() : Date&#xa;&lt;/span&gt;&lt;/span&gt;&lt;/div&gt;&lt;div style=&quot;display: flex; justify-content: null; text-align: null; align-items: baseline; font-size: 0; line-height: 1.25;margin-top: -2px;&quot;&gt;&lt;span&gt;&lt;span style=&quot;font-size:13px;&quot;&gt;+ getEmail() : String&#xa;&lt;/span&gt;&lt;/span&gt;&lt;/div&gt;&lt;div style=&quot;display: flex; justify-content: null; text-align: null; align-items: baseline; font-size: 0; line-height: 1.25;margin-top: -2px;&quot;&gt;&lt;span&gt;&lt;span style=&quot;font-size:13px;&quot;&gt;+ setId() : int&#xa;&lt;/span&gt;&lt;/span&gt;&lt;/div&gt;&lt;div style=&quot;display: flex; justify-content: null; text-align: null; align-items: baseline; font-size: 0; line-height: 1.25;margin-top: -2px;&quot;&gt;&lt;span&gt;&lt;span style=&quot;font-size:13px;&quot;&gt;+ setUsername() : String&#xa;&lt;/span&gt;&lt;/span&gt;&lt;/div&gt;&lt;div style=&quot;display: flex; justify-content: null; text-align: null; align-items: baseline; font-size: 0; line-height: 1.25;margin-top: -2px;&quot;&gt;&lt;span&gt;&lt;span style=&quot;font-size:13px;&quot;&gt;+ setName() : String&#xa;&lt;/span&gt;&lt;/span&gt;&lt;/div&gt;&lt;div style=&quot;display: flex; justify-content: null; text-align: null; align-items: baseline; font-size: 0; line-height: 1.25;margin-top: -2px;&quot;&gt;&lt;span&gt;&lt;span style=&quot;font-size:13px;&quot;&gt;+ setPassword() : String&#xa;&lt;/span&gt;&lt;/span&gt;&lt;/div&gt;&lt;div style=&quot;display: flex; justify-content: null; text-align: null; align-items: baseline; font-size: 0; line-height: 1.25;margin-top: -2px;&quot;&gt;&lt;span&gt;&lt;span style=&quot;font-size:13px;&quot;&gt;+ setRole() : String&#xa;&lt;/span&gt;&lt;/span&gt;&lt;/div&gt;&lt;div style=&quot;display: flex; justify-content: null; text-align: null; align-items: baseline; font-size: 0; line-height: 1.25;margin-top: -2px;&quot;&gt;&lt;span&gt;&lt;span style=&quot;font-size:13px;&quot;&gt;+ setDateOfBirth() : Date&#xa;&lt;/span&gt;&lt;/span&gt;&lt;/div&gt;&lt;div style=&quot;display: flex; justify-content: null; text-align: null; align-items: baseline; font-size: 0; line-height: 1.25;margin-top: -2px;&quot;&gt;&lt;span&gt;&lt;span style=&quot;font-size:13px;&quot;&gt;+ setEmail() : String&#xa;&lt;/span&gt;&lt;/span&gt;&lt;/div&gt;&lt;div style=&quot;display: flex; justify-content: center; text-align: center; align-items: baseline; font-size: 0; line-height: 1.25;margin-top: -2px;&quot;&gt;&lt;span&gt;&lt;/span&gt;&lt;/div&gt;" style="part=1;resizeHeight=0;strokeColor=none;fillColor=none;align=left;verticalAlign=middle;spacingLeft=4;spacingRight=4;rotatable=0;points=[[0,0.5],[1,0.5]];portConstraint=eastwest;swimlaneFillColor=#ffffff;strokeOpacity=100;fillOpacity=100;whiteSpace=wrap;overflow=block;blockSpacing=1;html=1;fontSize=13;" vertex="1" parent="2rgmVPee00Ddnv6rnugR-5">
          <mxGeometry y="150" width="330" height="499.25" as="geometry" />
        </mxCell>
        <mxCell id="2rgmVPee00Ddnv6rnugR-9" value="Course" style="html=1;overflow=block;blockSpacing=1;swimlane;childLayout=stackLayout;horizontal=1;horizontalStack=0;resizeParent=1;resizeParentMax=0;resizeLast=0;collapsible=0;fontStyle=0;marginBottom=0;swimlaneFillColor=#ffffff;startSize=25;whiteSpace=wrap;fontSize=13;align=left;spacing=0;strokeColor=#282c33;strokeOpacity=100;fillOpacity=100;rounded=1;absoluteArcSize=1;arcSize=9;fillColor=#ffffff;strokeWidth=1.5;" vertex="1" parent="1">
          <mxGeometry x="645" y="-75" width="330" height="590" as="geometry" />
        </mxCell>
        <mxCell id="2rgmVPee00Ddnv6rnugR-10" value="&lt;div style=&quot;display: flex; justify-content: null; text-align: null; align-items: baseline; font-size: 0; line-height: 1.25;margin-top: -2px;&quot;&gt;&lt;span&gt;&lt;span style=&quot;font-size:13px;&quot;&gt;- id: String&#xa;&lt;/span&gt;&lt;/span&gt;&lt;/div&gt;&lt;div style=&quot;display: flex; justify-content: null; text-align: null; align-items: baseline; font-size: 0; line-height: 1.25;margin-top: -2px;&quot;&gt;&lt;span&gt;&lt;span style=&quot;font-size:13px;&quot;&gt;- name: String&#xa;&lt;/span&gt;&lt;/span&gt;&lt;/div&gt;&lt;div style=&quot;display: flex; justify-content: null; text-align: null; align-items: baseline; font-size: 0; line-height: 1.25;margin-top: -2px;&quot;&gt;&lt;span&gt;&lt;span style=&quot;font-size:13px;&quot;&gt;- instructor: Instructor&#xa;&lt;/span&gt;&lt;/span&gt;&lt;/div&gt;&lt;div style=&quot;display: flex; justify-content: null; text-align: null; align-items: baseline; font-size: 0; line-height: 1.25;margin-top: -2px;&quot;&gt;&lt;span&gt;&lt;span style=&quot;font-size:13px;&quot;&gt;- students: []Students &#xa;&lt;/span&gt;&lt;/span&gt;&lt;/div&gt;&lt;div style=&quot;display: flex; justify-content: null; text-align: null; align-items: baseline; font-size: 0; line-height: 1.25;margin-top: -2px;&quot;&gt;&lt;span&gt;&lt;span style=&quot;font-size:13px;&quot;&gt;- tasks: []Task&lt;/span&gt;&lt;/span&gt;&lt;/div&gt;" style="part=1;html=1;resizeHeight=0;strokeColor=none;fillColor=none;align=left;verticalAlign=middle;spacingLeft=4;spacingRight=4;overflow=hidden;rotatable=0;points=[[0,0.5],[1,0.5]];portConstraint=eastwest;swimlaneFillColor=#ffffff;strokeOpacity=100;fillOpacity=100;whiteSpace=wrap;fontSize=13;" vertex="1" parent="2rgmVPee00Ddnv6rnugR-9">
          <mxGeometry y="25" width="330" height="115" as="geometry" />
        </mxCell>
        <mxCell id="2rgmVPee00Ddnv6rnugR-11" value="" style="line;strokeWidth=1;fillColor=none;align=left;verticalAlign=middle;spacingTop=-1;spacingLeft=3;spacingRight=3;rotatable=0;labelPosition=right;points=[];portConstraint=eastwest;" vertex="1" parent="2rgmVPee00Ddnv6rnugR-9">
          <mxGeometry y="140" width="330" height="8" as="geometry" />
        </mxCell>
        <mxCell id="2rgmVPee00Ddnv6rnugR-12" value="&lt;div style=&quot;display: flex; justify-content: null; text-align: null; align-items: baseline; font-size: 0; line-height: 1.25;margin-top: -2px;&quot;&gt;&lt;span&gt;&lt;span style=&quot;font-size:13px;&quot;&gt;+ addStudent(Student student) : void&#xa;&lt;/span&gt;&lt;/span&gt;&lt;/div&gt;&lt;div style=&quot;display: flex; justify-content: null; text-align: null; align-items: baseline; font-size: 0; line-height: 1.25;margin-top: -2px;&quot;&gt;&lt;span&gt;&lt;span style=&quot;font-size:13px;&quot;&gt;+ deleteStudent(Student student) : void&#xa;&lt;/span&gt;&lt;/span&gt;&lt;/div&gt;&lt;div style=&quot;display: flex; justify-content: null; text-align: null; align-items: baseline; font-size: 0; line-height: 1.25;margin-top: -2px;&quot;&gt;&lt;span&gt;&lt;span style=&quot;font-size:13px;&quot;&gt;+ viewStudednts() : []Students&#xa;&lt;/span&gt;&lt;/span&gt;&lt;/div&gt;&lt;div style=&quot;display: flex; justify-content: null; text-align: null; align-items: baseline; font-size: 0; line-height: 1.25;margin-top: -2px;&quot;&gt;&lt;span&gt;&lt;span style=&quot;font-size:13px;&quot;&gt;+ selectStudents() : Student&#xa;&lt;/span&gt;&lt;/span&gt;&lt;/div&gt;&lt;div style=&quot;display: flex; justify-content: null; text-align: null; align-items: baseline; font-size: 0; line-height: 1.25;margin-top: -2px;&quot;&gt;&lt;span&gt;&lt;span style=&quot;font-size:13px;&quot;&gt;&#xa;&lt;/span&gt;&lt;/span&gt;&lt;/div&gt;&lt;div style=&quot;display: flex; justify-content: null; text-align: null; align-items: baseline; font-size: 0; line-height: 1.25;margin-top: -2px;&quot;&gt;&lt;span&gt;&lt;span style=&quot;font-size:13px;&quot;&gt;+ addTask(String title, String description, Course course) : Task &#xa;&lt;/span&gt;&lt;/span&gt;&lt;/div&gt;&lt;div style=&quot;display: flex; justify-content: null; text-align: null; align-items: baseline; font-size: 0; line-height: 1.25;margin-top: -2px;&quot;&gt;&lt;span&gt;&lt;span style=&quot;font-size:13px;&quot;&gt;+ updateTask(Task task, String title, String description) : void&#xa;&lt;/span&gt;&lt;/span&gt;&lt;/div&gt;&lt;div style=&quot;display: flex; justify-content: null; text-align: null; align-items: baseline; font-size: 0; line-height: 1.25;margin-top: -2px;&quot;&gt;&lt;span&gt;&lt;span style=&quot;font-size:13px;&quot;&gt;+ deleteTask(Task task) : void&#xa;&lt;/span&gt;&lt;/span&gt;&lt;/div&gt;&lt;div style=&quot;display: flex; justify-content: null; text-align: null; align-items: baseline; font-size: 0; line-height: 1.25;margin-top: -2px;&quot;&gt;&lt;span&gt;&lt;span style=&quot;font-size:13px;&quot;&gt;+ selectTask() : Task&#xa;&lt;/span&gt;&lt;/span&gt;&lt;/div&gt;&lt;div style=&quot;display: flex; justify-content: null; text-align: null; align-items: baseline; font-size: 0; line-height: 1.25;margin-top: -2px;&quot;&gt;&lt;span&gt;&lt;span style=&quot;font-size:13px;&quot;&gt;&#xa;&lt;/span&gt;&lt;/span&gt;&lt;/div&gt;&lt;div style=&quot;display: flex; justify-content: null; text-align: null; align-items: baseline; font-size: 0; line-height: 1.25;margin-top: -2px;&quot;&gt;&lt;span&gt;&lt;span style=&quot;font-size:13px;&quot;&gt;+ addMaterial(Material material) : void&#xa;&lt;/span&gt;&lt;/span&gt;&lt;/div&gt;&lt;div style=&quot;display: flex; justify-content: null; text-align: null; align-items: baseline; font-size: 0; line-height: 1.25;margin-top: -2px;&quot;&gt;&lt;span&gt;&lt;span style=&quot;font-size:13px;&quot;&gt;+ deleteMaterial(Material material) : void &#xa;&lt;/span&gt;&lt;/span&gt;&lt;/div&gt;&lt;div style=&quot;display: flex; justify-content: null; text-align: null; align-items: baseline; font-size: 0; line-height: 1.25;margin-top: -2px;&quot;&gt;&lt;span&gt;&lt;span style=&quot;font-size:13px;&quot;&gt;&#xa;&lt;/span&gt;&lt;/span&gt;&lt;/div&gt;&lt;div style=&quot;display: flex; justify-content: null; text-align: null; align-items: baseline; font-size: 0; line-height: 1.25;margin-top: -2px;&quot;&gt;&lt;span&gt;&lt;span style=&quot;font-size:13px;&quot;&gt;+ getId() : String&#xa;&lt;/span&gt;&lt;/span&gt;&lt;/div&gt;&lt;div style=&quot;display: flex; justify-content: null; text-align: null; align-items: baseline; font-size: 0; line-height: 1.25;margin-top: -2px;&quot;&gt;&lt;span&gt;&lt;span style=&quot;font-size:13px;&quot;&gt;+ getName() : String&#xa;&lt;/span&gt;&lt;/span&gt;&lt;/div&gt;&lt;div style=&quot;display: flex; justify-content: null; text-align: null; align-items: baseline; font-size: 0; line-height: 1.25;margin-top: -2px;&quot;&gt;&lt;span&gt;&lt;span style=&quot;font-size:13px;&quot;&gt;+ getInstructor() : Instructor&#xa;&lt;/span&gt;&lt;/span&gt;&lt;/div&gt;&lt;div style=&quot;display: flex; justify-content: null; text-align: null; align-items: baseline; font-size: 0; line-height: 1.25;margin-top: -2px;&quot;&gt;&lt;span&gt;&lt;span style=&quot;font-size:13px;&quot;&gt;+ getStudents() : []Students&#xa;&lt;/span&gt;&lt;/span&gt;&lt;/div&gt;&lt;div style=&quot;display: flex; justify-content: null; text-align: null; align-items: baseline; font-size: 0; line-height: 1.25;margin-top: -2px;&quot;&gt;&lt;span&gt;&lt;span style=&quot;font-size:13px;&quot;&gt;+ getTasks() : []Task&#xa;&lt;/span&gt;&lt;/span&gt;&lt;/div&gt;&lt;div style=&quot;display: flex; justify-content: null; text-align: null; align-items: baseline; font-size: 0; line-height: 1.25;margin-top: -2px;&quot;&gt;&lt;span&gt;&lt;span style=&quot;font-size:13px;&quot;&gt;+ setId() : String&#xa;&lt;/span&gt;&lt;/span&gt;&lt;/div&gt;&lt;div style=&quot;display: flex; justify-content: null; text-align: null; align-items: baseline; font-size: 0; line-height: 1.25;margin-top: -2px;&quot;&gt;&lt;span&gt;&lt;span style=&quot;font-size:13px;&quot;&gt;+ setName() : String&#xa;&lt;/span&gt;&lt;/span&gt;&lt;/div&gt;&lt;div style=&quot;display: flex; justify-content: null; text-align: null; align-items: baseline; font-size: 0; line-height: 1.25;margin-top: -2px;&quot;&gt;&lt;span&gt;&lt;span style=&quot;font-size:13px;&quot;&gt;+ setInstructor() : Instructor&#xa;&lt;/span&gt;&lt;/span&gt;&lt;/div&gt;&lt;div style=&quot;display: flex; justify-content: null; text-align: null; align-items: baseline; font-size: 0; line-height: 1.25;margin-top: -2px;&quot;&gt;&lt;span&gt;&lt;span style=&quot;font-size:13px;&quot;&gt;+ setStudents() : []Students&#xa;&lt;/span&gt;&lt;/span&gt;&lt;/div&gt;&lt;div style=&quot;display: flex; justify-content: null; text-align: null; align-items: baseline; font-size: 0; line-height: 1.25;margin-top: -2px;&quot;&gt;&lt;span&gt;&lt;span style=&quot;font-size:13px;&quot;&gt;+ setTasks() : []Task&lt;/span&gt;&lt;/span&gt;&lt;/div&gt;" style="part=1;resizeHeight=0;strokeColor=none;fillColor=none;align=left;verticalAlign=middle;spacingLeft=4;spacingRight=4;rotatable=0;points=[[0,0.5],[1,0.5]];portConstraint=eastwest;swimlaneFillColor=#ffffff;strokeOpacity=100;fillOpacity=100;whiteSpace=wrap;overflow=block;blockSpacing=1;html=1;fontSize=13;" vertex="1" parent="2rgmVPee00Ddnv6rnugR-9">
          <mxGeometry y="148" width="330" height="442" as="geometry" />
        </mxCell>
        <mxCell id="2rgmVPee00Ddnv6rnugR-13" value="Task" style="html=1;overflow=block;blockSpacing=1;swimlane;childLayout=stackLayout;horizontal=1;horizontalStack=0;resizeParent=1;resizeParentMax=0;resizeLast=0;collapsible=0;fontStyle=0;marginBottom=0;swimlaneFillColor=#ffffff;startSize=25;whiteSpace=wrap;fontSize=13;align=left;spacing=0;strokeColor=#282c33;strokeOpacity=100;fillOpacity=100;rounded=1;absoluteArcSize=1;arcSize=9;fillColor=#ffffff;strokeWidth=1.5;" vertex="1" parent="1">
          <mxGeometry x="1050" y="-75" width="330" height="613" as="geometry" />
        </mxCell>
        <mxCell id="2rgmVPee00Ddnv6rnugR-14" value="&lt;div style=&quot;display: flex; justify-content: null; text-align: null; align-items: baseline; font-size: 0; line-height: 1.25;margin-top: -2px;&quot;&gt;&lt;span&gt;&lt;span style=&quot;font-size:13px;&quot;&gt;- id: String&#xa;&lt;/span&gt;&lt;/span&gt;&lt;/div&gt;&lt;div style=&quot;display: flex; justify-content: null; text-align: null; align-items: baseline; font-size: 0; line-height: 1.25;margin-top: -2px;&quot;&gt;&lt;span&gt;&lt;span style=&quot;font-size:13px;&quot;&gt;- title: String&#xa;&lt;/span&gt;&lt;/span&gt;&lt;/div&gt;&lt;div style=&quot;display: flex; justify-content: null; text-align: null; align-items: baseline; font-size: 0; line-height: 1.25;margin-top: -2px;&quot;&gt;&lt;span&gt;&lt;span style=&quot;font-size:13px;&quot;&gt;- description: String&#xa;&lt;/span&gt;&lt;/span&gt;&lt;/div&gt;&lt;div style=&quot;display: flex; justify-content: null; text-align: null; align-items: baseline; font-size: 0; line-height: 1.25;margin-top: -2px;&quot;&gt;&lt;span&gt;&lt;span style=&quot;font-size:13px;&quot;&gt;- course: Course&#xa;&lt;/span&gt;&lt;/span&gt;&lt;/div&gt;&lt;div style=&quot;display: flex; justify-content: null; text-align: null; align-items: baseline; font-size: 0; line-height: 1.25;margin-top: -2px;&quot;&gt;&lt;span&gt;&lt;span style=&quot;font-size:13px;&quot;&gt;- deadline : Date&#xa;&lt;/span&gt;&lt;/span&gt;&lt;/div&gt;&lt;div style=&quot;display: flex; justify-content: null; text-align: null; align-items: baseline; font-size: 0; line-height: 1.25;margin-top: -2px;&quot;&gt;&lt;span&gt;&lt;span style=&quot;font-size:13px;&quot;&gt;- unitTestCases: []UnitTestCases&lt;/span&gt;&lt;/span&gt;&lt;/div&gt;" style="part=1;html=1;resizeHeight=0;strokeColor=none;fillColor=none;align=left;verticalAlign=middle;spacingLeft=4;spacingRight=4;overflow=hidden;rotatable=0;points=[[0,0.5],[1,0.5]];portConstraint=eastwest;swimlaneFillColor=#ffffff;strokeOpacity=100;fillOpacity=100;whiteSpace=wrap;fontSize=13;" vertex="1" parent="2rgmVPee00Ddnv6rnugR-13">
          <mxGeometry y="25" width="330" height="145" as="geometry" />
        </mxCell>
        <mxCell id="2rgmVPee00Ddnv6rnugR-15" value="" style="line;strokeWidth=1;fillColor=none;align=left;verticalAlign=middle;spacingTop=-1;spacingLeft=3;spacingRight=3;rotatable=0;labelPosition=right;points=[];portConstraint=eastwest;" vertex="1" parent="2rgmVPee00Ddnv6rnugR-13">
          <mxGeometry y="170" width="330" height="8" as="geometry" />
        </mxCell>
        <mxCell id="2rgmVPee00Ddnv6rnugR-16" value="&lt;div style=&quot;display: flex; justify-content: null; text-align: null; align-items: baseline; font-size: 0; line-height: 1.25;margin-top: -2px;&quot;&gt;&lt;span&gt;&lt;span style=&quot;font-size:13px;&quot;&gt;+ addGrade(Student student, Course course, double grade) : void&#xa;&lt;/span&gt;&lt;/span&gt;&lt;/div&gt;&lt;div style=&quot;display: flex; justify-content: null; text-align: null; align-items: baseline; font-size: 0; line-height: 1.25;margin-top: -2px;&quot;&gt;&lt;span&gt;&lt;span style=&quot;font-size:13px;&quot;&gt;+ updateStudentGrade(Student student, Course course, double grade) : void&#xa;&lt;/span&gt;&lt;/span&gt;&lt;/div&gt;&lt;div style=&quot;display: flex; justify-content: null; text-align: null; align-items: baseline; font-size: 0; line-height: 1.25;margin-top: -2px;&quot;&gt;&lt;span&gt;&lt;span style=&quot;font-size:13px;&quot;&gt;+ deleteGrade&#xa;&lt;/span&gt;&lt;/span&gt;&lt;/div&gt;&lt;div style=&quot;display: flex; justify-content: null; text-align: null; align-items: baseline; font-size: 0; line-height: 1.25;margin-top: -2px;&quot;&gt;&lt;span&gt;&lt;span style=&quot;font-size:13px;&quot;&gt;+ addFeedback(UnitTestCase unitTest, String feedback) : void&#xa;&lt;/span&gt;&lt;/span&gt;&lt;/div&gt;&lt;div style=&quot;display: flex; justify-content: null; text-align: null; align-items: baseline; font-size: 0; line-height: 1.25;margin-top: -2px;&quot;&gt;&lt;span&gt;&lt;span style=&quot;font-size:13px;&quot;&gt;+deleteFeedback(UnitTestCase unitTest, String feedback) : void&#xa;&lt;/span&gt;&lt;/span&gt;&lt;/div&gt;&lt;div style=&quot;display: flex; justify-content: null; text-align: null; align-items: baseline; font-size: 0; line-height: 1.25;margin-top: -2px;&quot;&gt;&lt;span&gt;&lt;span style=&quot;font-size:13px;&quot;&gt;+ viewStudentFeedback(Task task, Student student) : String&#xa;&lt;/span&gt;&lt;/span&gt;&lt;/div&gt;&lt;div style=&quot;display: flex; justify-content: null; text-align: null; align-items: baseline; font-size: 0; line-height: 1.25;margin-top: -2px;&quot;&gt;&lt;span&gt;&lt;span style=&quot;font-size:13px;&quot;&gt;+ showStudentGrade(Task task, Student student) : String&#xa;&lt;/span&gt;&lt;/span&gt;&lt;/div&gt;&lt;div style=&quot;display: flex; justify-content: null; text-align: null; align-items: baseline; font-size: 0; line-height: 1.25;margin-top: -2px;&quot;&gt;&lt;span&gt;&lt;span style=&quot;font-size:13px;&quot;&gt;&#xa;&lt;/span&gt;&lt;/span&gt;&lt;/div&gt;&lt;div style=&quot;display: flex; justify-content: null; text-align: null; align-items: baseline; font-size: 0; line-height: 1.25;margin-top: -2px;&quot;&gt;&lt;span&gt;&lt;span style=&quot;font-size:13px;&quot;&gt;+ getId() : String&#xa;&lt;/span&gt;&lt;/span&gt;&lt;/div&gt;&lt;div style=&quot;display: flex; justify-content: null; text-align: null; align-items: baseline; font-size: 0; line-height: 1.25;margin-top: -2px;&quot;&gt;&lt;span&gt;&lt;span style=&quot;font-size:13px;&quot;&gt;+ getTitle() : String&#xa;&lt;/span&gt;&lt;/span&gt;&lt;/div&gt;&lt;div style=&quot;display: flex; justify-content: null; text-align: null; align-items: baseline; font-size: 0; line-height: 1.25;margin-top: -2px;&quot;&gt;&lt;span&gt;&lt;span style=&quot;font-size:13px;&quot;&gt;+ getDescription() : String&#xa;&lt;/span&gt;&lt;/span&gt;&lt;/div&gt;&lt;div style=&quot;display: flex; justify-content: null; text-align: null; align-items: baseline; font-size: 0; line-height: 1.25;margin-top: -2px;&quot;&gt;&lt;span&gt;&lt;span style=&quot;font-size:13px;&quot;&gt;+ getCourse() : Course&#xa;&lt;/span&gt;&lt;/span&gt;&lt;/div&gt;&lt;div style=&quot;display: flex; justify-content: null; text-align: null; align-items: baseline; font-size: 0; line-height: 1.25;margin-top: -2px;&quot;&gt;&lt;span&gt;&lt;span style=&quot;font-size:13px;&quot;&gt;+ getDeadline() : Date&#xa;&lt;/span&gt;&lt;/span&gt;&lt;/div&gt;&lt;div style=&quot;display: flex; justify-content: null; text-align: null; align-items: baseline; font-size: 0; line-height: 1.25;margin-top: -2px;&quot;&gt;&lt;span&gt;&lt;span style=&quot;font-size:13px;&quot;&gt;+ getUnitTestCases() : []UnitTestCases&#xa;&lt;/span&gt;&lt;/span&gt;&lt;/div&gt;&lt;div style=&quot;display: flex; justify-content: null; text-align: null; align-items: baseline; font-size: 0; line-height: 1.25;margin-top: -2px;&quot;&gt;&lt;span&gt;&lt;span style=&quot;font-size:13px;&quot;&gt;+ setId() : String&#xa;&lt;/span&gt;&lt;/span&gt;&lt;/div&gt;&lt;div style=&quot;display: flex; justify-content: null; text-align: null; align-items: baseline; font-size: 0; line-height: 1.25;margin-top: -2px;&quot;&gt;&lt;span&gt;&lt;span style=&quot;font-size:13px;&quot;&gt;+ setTitle() : String&#xa;&lt;/span&gt;&lt;/span&gt;&lt;/div&gt;&lt;div style=&quot;display: flex; justify-content: null; text-align: null; align-items: baseline; font-size: 0; line-height: 1.25;margin-top: -2px;&quot;&gt;&lt;span&gt;&lt;span style=&quot;font-size:13px;&quot;&gt;+ setDescription() : String&#xa;&lt;/span&gt;&lt;/span&gt;&lt;/div&gt;&lt;div style=&quot;display: flex; justify-content: null; text-align: null; align-items: baseline; font-size: 0; line-height: 1.25;margin-top: -2px;&quot;&gt;&lt;span&gt;&lt;span style=&quot;font-size:13px;&quot;&gt;+ setCourse() : Course&#xa;&lt;/span&gt;&lt;/span&gt;&lt;/div&gt;&lt;div style=&quot;display: flex; justify-content: null; text-align: null; align-items: baseline; font-size: 0; line-height: 1.25;margin-top: -2px;&quot;&gt;&lt;span&gt;&lt;span style=&quot;font-size:13px;&quot;&gt;+ setDeadline() : Date&#xa;&lt;/span&gt;&lt;/span&gt;&lt;/div&gt;&lt;div style=&quot;display: flex; justify-content: null; text-align: null; align-items: baseline; font-size: 0; line-height: 1.25;margin-top: -2px;&quot;&gt;&lt;span&gt;&lt;span style=&quot;font-size:13px;&quot;&gt;+ setUnitTestCases() : []UnitTestCases&lt;/span&gt;&lt;/span&gt;&lt;/div&gt;" style="part=1;resizeHeight=0;strokeColor=none;fillColor=none;align=left;verticalAlign=middle;spacingLeft=4;spacingRight=4;rotatable=0;points=[[0,0.5],[1,0.5]];portConstraint=eastwest;swimlaneFillColor=#ffffff;strokeOpacity=100;fillOpacity=100;whiteSpace=wrap;overflow=block;blockSpacing=1;html=1;fontSize=13;" vertex="1" parent="2rgmVPee00Ddnv6rnugR-13">
          <mxGeometry y="178" width="330" height="435" as="geometry" />
        </mxCell>
        <mxCell id="2rgmVPee00Ddnv6rnugR-17" value="UnitTestCase" style="html=1;overflow=block;blockSpacing=1;swimlane;childLayout=stackLayout;horizontal=1;horizontalStack=0;resizeParent=1;resizeParentMax=0;resizeLast=0;collapsible=0;fontStyle=0;marginBottom=0;swimlaneFillColor=#ffffff;startSize=25;whiteSpace=wrap;fontSize=13;align=left;spacing=0;strokeColor=#282c33;strokeOpacity=100;fillOpacity=100;rounded=1;absoluteArcSize=1;arcSize=9;fillColor=#ffffff;strokeWidth=1.5;" vertex="1" parent="1">
          <mxGeometry x="1455" y="-75" width="330" height="527.25" as="geometry" />
        </mxCell>
        <mxCell id="2rgmVPee00Ddnv6rnugR-18" value="&lt;div style=&quot;display: flex; justify-content: null; text-align: null; align-items: baseline; font-size: 0; line-height: 1.25;margin-top: -2px;&quot;&gt;&lt;span&gt;&lt;span style=&quot;font-size:13px;&quot;&gt;- id: String&#xa;&lt;/span&gt;&lt;/span&gt;&lt;/div&gt;&lt;div style=&quot;display: flex; justify-content: null; text-align: null; align-items: baseline; font-size: 0; line-height: 1.25;margin-top: -2px;&quot;&gt;&lt;span&gt;&lt;span style=&quot;font-size:13px;&quot;&gt;- name: String&#xa;&lt;/span&gt;&lt;/span&gt;&lt;/div&gt;&lt;div style=&quot;display: flex; justify-content: null; text-align: null; align-items: baseline; font-size: 0; line-height: 1.25;margin-top: -2px;&quot;&gt;&lt;span&gt;&lt;span style=&quot;font-size:13px;&quot;&gt;- code: String&#xa;&lt;/span&gt;&lt;/span&gt;&lt;/div&gt;&lt;div style=&quot;display: flex; justify-content: null; text-align: null; align-items: baseline; font-size: 0; line-height: 1.25;margin-top: -2px;&quot;&gt;&lt;span&gt;&lt;span style=&quot;font-size:13px;&quot;&gt;- weight: int&#xa;&lt;/span&gt;&lt;/span&gt;&lt;/div&gt;&lt;div style=&quot;display: flex; justify-content: null; text-align: null; align-items: baseline; font-size: 0; line-height: 1.25;margin-top: -2px;&quot;&gt;&lt;span&gt;&lt;span style=&quot;font-size:13px;&quot;&gt;- task: Task&#xa;&lt;/span&gt;&lt;/span&gt;&lt;/div&gt;&lt;div style=&quot;display: flex; justify-content: null; text-align: null; align-items: baseline; font-size: 0; line-height: 1.25;margin-top: -2px;&quot;&gt;&lt;span&gt;&lt;span style=&quot;font-size:13px;&quot;&gt;- feedback: String&#xa;&lt;/span&gt;&lt;/span&gt;&lt;/div&gt;&lt;div style=&quot;display: flex; justify-content: null; text-align: null; align-items: baseline; font-size: 0; line-height: 1.25;margin-top: -2px;&quot;&gt;&lt;span&gt;&lt;span style=&quot;font-size:13px;&quot;&gt;- expectedOutput: String&#xa;&lt;/span&gt;&lt;/span&gt;&lt;/div&gt;&lt;div style=&quot;display: flex; justify-content: null; text-align: null; align-items: baseline; font-size: 0; line-height: 1.25;margin-top: -2px;&quot;&gt;&lt;span&gt;&lt;span style=&quot;font-size:13px;&quot;&gt;- actualOutput: String&#xa;&lt;/span&gt;&lt;/span&gt;&lt;/div&gt;&lt;div style=&quot;display: flex; justify-content: null; text-align: null; align-items: baseline; font-size: 0; line-height: 1.25;margin-top: -2px;&quot;&gt;&lt;span&gt;&lt;span style=&quot;font-size:13px;&quot;&gt;- passed: boolean&lt;/span&gt;&lt;/span&gt;&lt;/div&gt;" style="part=1;html=1;resizeHeight=0;strokeColor=none;fillColor=none;align=left;verticalAlign=middle;spacingLeft=4;spacingRight=4;overflow=hidden;rotatable=0;points=[[0,0.5],[1,0.5]];portConstraint=eastwest;swimlaneFillColor=#ffffff;strokeOpacity=100;fillOpacity=100;whiteSpace=wrap;fontSize=13;" vertex="1" parent="2rgmVPee00Ddnv6rnugR-17">
          <mxGeometry y="25" width="330" height="165" as="geometry" />
        </mxCell>
        <mxCell id="2rgmVPee00Ddnv6rnugR-19" value="" style="line;strokeWidth=1;fillColor=none;align=left;verticalAlign=middle;spacingTop=-1;spacingLeft=3;spacingRight=3;rotatable=0;labelPosition=right;points=[];portConstraint=eastwest;" vertex="1" parent="2rgmVPee00Ddnv6rnugR-17">
          <mxGeometry y="190" width="330" height="8" as="geometry" />
        </mxCell>
        <mxCell id="2rgmVPee00Ddnv6rnugR-20" value="&lt;div style=&quot;display: flex; justify-content: null; text-align: null; align-items: baseline; font-size: 0; line-height: 1.25;margin-top: -2px;&quot;&gt;&lt;span&gt;&lt;span style=&quot;font-size:13px;&quot;&gt;+ runTest()&#xa;&lt;/span&gt;&lt;/span&gt;&lt;/div&gt;&lt;div style=&quot;display: flex; justify-content: null; text-align: null; align-items: baseline; font-size: 0; line-height: 1.25;margin-top: -2px;&quot;&gt;&lt;span&gt;&lt;span style=&quot;font-size:13px;&quot;&gt;&#xa;&lt;/span&gt;&lt;/span&gt;&lt;/div&gt;&lt;div style=&quot;display: flex; justify-content: null; text-align: null; align-items: baseline; font-size: 0; line-height: 1.25;margin-top: -2px;&quot;&gt;&lt;span&gt;&lt;span style=&quot;font-size:13px;&quot;&gt;+ getId() : String&#xa;&lt;/span&gt;&lt;/span&gt;&lt;/div&gt;&lt;div style=&quot;display: flex; justify-content: null; text-align: null; align-items: baseline; font-size: 0; line-height: 1.25;margin-top: -2px;&quot;&gt;&lt;span&gt;&lt;span style=&quot;font-size:13px;&quot;&gt;+ getName() : String&#xa;&lt;/span&gt;&lt;/span&gt;&lt;/div&gt;&lt;div style=&quot;display: flex; justify-content: null; text-align: null; align-items: baseline; font-size: 0; line-height: 1.25;margin-top: -2px;&quot;&gt;&lt;span&gt;&lt;span style=&quot;font-size:13px;&quot;&gt;+ getCode() : String&#xa;&lt;/span&gt;&lt;/span&gt;&lt;/div&gt;&lt;div style=&quot;display: flex; justify-content: null; text-align: null; align-items: baseline; font-size: 0; line-height: 1.25;margin-top: -2px;&quot;&gt;&lt;span&gt;&lt;span style=&quot;font-size:13px;&quot;&gt;+ getWeight() : int&#xa;&lt;/span&gt;&lt;/span&gt;&lt;/div&gt;&lt;div style=&quot;display: flex; justify-content: null; text-align: null; align-items: baseline; font-size: 0; line-height: 1.25;margin-top: -2px;&quot;&gt;&lt;span&gt;&lt;span style=&quot;font-size:13px;&quot;&gt;+ getTask() : Task&#xa;&lt;/span&gt;&lt;/span&gt;&lt;/div&gt;&lt;div style=&quot;display: flex; justify-content: null; text-align: null; align-items: baseline; font-size: 0; line-height: 1.25;margin-top: -2px;&quot;&gt;&lt;span&gt;&lt;span style=&quot;font-size:13px;&quot;&gt;+ getFeedback() : String&#xa;&lt;/span&gt;&lt;/span&gt;&lt;/div&gt;&lt;div style=&quot;display: flex; justify-content: null; text-align: null; align-items: baseline; font-size: 0; line-height: 1.25;margin-top: -2px;&quot;&gt;&lt;span&gt;&lt;span style=&quot;font-size:13px;&quot;&gt;+ getExpectedOutput() : String&#xa;&lt;/span&gt;&lt;/span&gt;&lt;/div&gt;&lt;div style=&quot;display: flex; justify-content: null; text-align: null; align-items: baseline; font-size: 0; line-height: 1.25;margin-top: -2px;&quot;&gt;&lt;span&gt;&lt;span style=&quot;font-size:13px;&quot;&gt;+ getActualOutput() : String&#xa;&lt;/span&gt;&lt;/span&gt;&lt;/div&gt;&lt;div style=&quot;display: flex; justify-content: null; text-align: null; align-items: baseline; font-size: 0; line-height: 1.25;margin-top: -2px;&quot;&gt;&lt;span&gt;&lt;span style=&quot;font-size:13px;&quot;&gt;+ getPassed() : boolean&#xa;&lt;/span&gt;&lt;/span&gt;&lt;/div&gt;&lt;div style=&quot;display: flex; justify-content: null; text-align: null; align-items: baseline; font-size: 0; line-height: 1.25;margin-top: -2px;&quot;&gt;&lt;span&gt;&lt;span style=&quot;font-size:13px;&quot;&gt;+ setId() : String&#xa;&lt;/span&gt;&lt;/span&gt;&lt;/div&gt;&lt;div style=&quot;display: flex; justify-content: null; text-align: null; align-items: baseline; font-size: 0; line-height: 1.25;margin-top: -2px;&quot;&gt;&lt;span&gt;&lt;span style=&quot;font-size:13px;&quot;&gt;+ setName() : String&#xa;&lt;/span&gt;&lt;/span&gt;&lt;/div&gt;&lt;div style=&quot;display: flex; justify-content: null; text-align: null; align-items: baseline; font-size: 0; line-height: 1.25;margin-top: -2px;&quot;&gt;&lt;span&gt;&lt;span style=&quot;font-size:13px;&quot;&gt;+ setCode() : String&#xa;&lt;/span&gt;&lt;/span&gt;&lt;/div&gt;&lt;div style=&quot;display: flex; justify-content: null; text-align: null; align-items: baseline; font-size: 0; line-height: 1.25;margin-top: -2px;&quot;&gt;&lt;span&gt;&lt;span style=&quot;font-size:13px;&quot;&gt;+ setWeight() : int&#xa;&lt;/span&gt;&lt;/span&gt;&lt;/div&gt;&lt;div style=&quot;display: flex; justify-content: null; text-align: null; align-items: baseline; font-size: 0; line-height: 1.25;margin-top: -2px;&quot;&gt;&lt;span&gt;&lt;span style=&quot;font-size:13px;&quot;&gt;+ setTask() : Task&#xa;&lt;/span&gt;&lt;/span&gt;&lt;/div&gt;&lt;div style=&quot;display: flex; justify-content: null; text-align: null; align-items: baseline; font-size: 0; line-height: 1.25;margin-top: -2px;&quot;&gt;&lt;span&gt;&lt;span style=&quot;font-size:13px;&quot;&gt;+ setFeedback() : String&#xa;&lt;/span&gt;&lt;/span&gt;&lt;/div&gt;&lt;div style=&quot;display: flex; justify-content: null; text-align: null; align-items: baseline; font-size: 0; line-height: 1.25;margin-top: -2px;&quot;&gt;&lt;span&gt;&lt;span style=&quot;font-size:13px;&quot;&gt;+ setExpectedOutput() : String&#xa;&lt;/span&gt;&lt;/span&gt;&lt;/div&gt;&lt;div style=&quot;display: flex; justify-content: null; text-align: null; align-items: baseline; font-size: 0; line-height: 1.25;margin-top: -2px;&quot;&gt;&lt;span&gt;&lt;span style=&quot;font-size:13px;&quot;&gt;+ setActualOutput() : String&#xa;&lt;/span&gt;&lt;/span&gt;&lt;/div&gt;&lt;div style=&quot;display: flex; justify-content: null; text-align: null; align-items: baseline; font-size: 0; line-height: 1.25;margin-top: -2px;&quot;&gt;&lt;span&gt;&lt;span style=&quot;font-size:13px;&quot;&gt;+ setPassed() : boolean&lt;/span&gt;&lt;/span&gt;&lt;/div&gt;" style="part=1;resizeHeight=0;strokeColor=none;fillColor=none;align=left;verticalAlign=middle;spacingLeft=4;spacingRight=4;rotatable=0;points=[[0,0.5],[1,0.5]];portConstraint=eastwest;swimlaneFillColor=#ffffff;strokeOpacity=100;fillOpacity=100;whiteSpace=wrap;overflow=block;blockSpacing=1;html=1;fontSize=13;" vertex="1" parent="2rgmVPee00Ddnv6rnugR-17">
          <mxGeometry y="198" width="330" height="329.25" as="geometry" />
        </mxCell>
        <mxCell id="2rgmVPee00Ddnv6rnugR-21" value="" style="html=1;jettySize=18;whiteSpace=wrap;overflow=block;blockSpacing=1;fontSize=13;strokeColor=#3a414a;strokeOpacity=100;strokeWidth=0.8;rounded=1;arcSize=12;edgeStyle=orthogonalEdgeStyle;startArrow=diamond;startFill=1;startSize=16;endArrow=none;exitX=1.002;exitY=0.5;exitPerimeter=0;entryX=-0.002;entryY=0.514;entryPerimeter=0;lucidId=8FctIOfAXqoB;" edge="1" parent="1" source="2rgmVPee00Ddnv6rnugR-9" target="2rgmVPee00Ddnv6rnugR-13">
          <mxGeometry width="100" height="100" relative="1" as="geometry">
            <Array as="points" />
          </mxGeometry>
        </mxCell>
        <mxCell id="2rgmVPee00Ddnv6rnugR-22" value="1" style="text;html=1;resizable=0;labelBackgroundColor=default;align=center;verticalAlign=middle;fontSize=13;" vertex="1" parent="2rgmVPee00Ddnv6rnugR-21">
          <mxGeometry x="-1" relative="1" as="geometry">
            <mxPoint as="offset" />
          </mxGeometry>
        </mxCell>
        <mxCell id="2rgmVPee00Ddnv6rnugR-23" value="0..*" style="text;html=1;resizable=0;labelBackgroundColor=default;align=center;verticalAlign=middle;fontSize=13;" vertex="1" parent="2rgmVPee00Ddnv6rnugR-21">
          <mxGeometry x="1" relative="1" as="geometry">
            <mxPoint as="offset" />
          </mxGeometry>
        </mxCell>
        <mxCell id="2rgmVPee00Ddnv6rnugR-24" value="" style="html=1;jettySize=18;whiteSpace=wrap;fontSize=13;strokeColor=#3a414a;strokeOpacity=100;strokeWidth=0.8;rounded=1;arcSize=12;edgeStyle=orthogonalEdgeStyle;startArrow=none;endArrow=none;exitX=-0.002;exitY=0.491;exitPerimeter=0;entryX=1.002;entryY=0.5;entryPerimeter=0;lucidId=1HcteIxQXkb2;" edge="1" parent="1" source="2rgmVPee00Ddnv6rnugR-9" target="2rgmVPee00Ddnv6rnugR-5">
          <mxGeometry width="100" height="100" relative="1" as="geometry">
            <Array as="points" />
          </mxGeometry>
        </mxCell>
        <mxCell id="2rgmVPee00Ddnv6rnugR-25" value="enroll" style="text;html=1;resizable=0;labelBackgroundColor=default;align=center;verticalAlign=middle;fontColor=#3a414a;fontSize=16.7;" vertex="1" parent="2rgmVPee00Ddnv6rnugR-24">
          <mxGeometry relative="1" as="geometry" />
        </mxCell>
        <mxCell id="2rgmVPee00Ddnv6rnugR-26" value="1..*" style="text;html=1;resizable=0;labelBackgroundColor=default;align=center;verticalAlign=middle;fontSize=13;" vertex="1" parent="2rgmVPee00Ddnv6rnugR-24">
          <mxGeometry x="-1" relative="1" as="geometry">
            <mxPoint as="offset" />
          </mxGeometry>
        </mxCell>
        <mxCell id="2rgmVPee00Ddnv6rnugR-27" value="1..*" style="text;html=1;resizable=0;labelBackgroundColor=default;align=center;verticalAlign=middle;fontSize=13;" vertex="1" parent="2rgmVPee00Ddnv6rnugR-24">
          <mxGeometry x="0.9346402455190661" relative="1" as="geometry">
            <mxPoint as="offset" />
          </mxGeometry>
        </mxCell>
        <mxCell id="2rgmVPee00Ddnv6rnugR-28" value="" style="html=1;jettySize=18;whiteSpace=wrap;fontSize=13;strokeColor=#3a414a;strokeOpacity=100;strokeWidth=0.8;rounded=1;arcSize=12;edgeStyle=orthogonalEdgeStyle;startArrow=diamond;startFill=1;startSize=16;endArrow=none;exitX=1.002;exitY=0.5;exitPerimeter=0;entryX=-0.002;entryY=0.5;entryPerimeter=0;lucidId=5Jct9eFDVfGh;" edge="1" parent="1" source="2rgmVPee00Ddnv6rnugR-13" target="2rgmVPee00Ddnv6rnugR-17">
          <mxGeometry width="100" height="100" relative="1" as="geometry">
            <Array as="points" />
          </mxGeometry>
        </mxCell>
        <mxCell id="2rgmVPee00Ddnv6rnugR-29" value="1" style="text;html=1;resizable=0;labelBackgroundColor=default;align=center;verticalAlign=middle;fontSize=13;" vertex="1" parent="2rgmVPee00Ddnv6rnugR-28">
          <mxGeometry x="-1" relative="1" as="geometry">
            <mxPoint as="offset" />
          </mxGeometry>
        </mxCell>
        <mxCell id="2rgmVPee00Ddnv6rnugR-30" value="0..*" style="text;html=1;resizable=0;labelBackgroundColor=default;align=center;verticalAlign=middle;fontSize=13;" vertex="1" parent="2rgmVPee00Ddnv6rnugR-28">
          <mxGeometry x="1" relative="1" as="geometry">
            <mxPoint as="offset" />
          </mxGeometry>
        </mxCell>
        <mxCell id="2rgmVPee00Ddnv6rnugR-31" value="" style="html=1;jettySize=18;whiteSpace=wrap;fontSize=13;strokeColor=#3a414a;strokeOpacity=100;strokeWidth=0.8;rounded=1;arcSize=12;edgeStyle=orthogonalEdgeStyle;startArrow=none;endArrow=none;exitX=1.002;exitY=0.452;exitPerimeter=0;entryX=-0.002;entryY=0.569;entryPerimeter=0;lucidId=aNctiNETiecv;" edge="1" parent="1" source="2rgmVPee00Ddnv6rnugR-1" target="2rgmVPee00Ddnv6rnugR-9">
          <mxGeometry width="100" height="100" relative="1" as="geometry">
            <Array as="points" />
          </mxGeometry>
        </mxCell>
        <mxCell id="2rgmVPee00Ddnv6rnugR-32" value="teach" style="text;html=1;resizable=0;labelBackgroundColor=default;align=center;verticalAlign=middle;fontColor=#333333;fontSize=16.7;" vertex="1" parent="2rgmVPee00Ddnv6rnugR-31">
          <mxGeometry relative="1" as="geometry" />
        </mxCell>
        <mxCell id="2rgmVPee00Ddnv6rnugR-33" value="1" style="text;html=1;resizable=0;labelBackgroundColor=default;align=center;verticalAlign=middle;fontSize=13;" vertex="1" parent="2rgmVPee00Ddnv6rnugR-31">
          <mxGeometry x="-1" relative="1" as="geometry">
            <mxPoint as="offset" />
          </mxGeometry>
        </mxCell>
        <mxCell id="2rgmVPee00Ddnv6rnugR-34" value="1..*" style="text;html=1;resizable=0;labelBackgroundColor=default;align=center;verticalAlign=middle;fontSize=13;" vertex="1" parent="2rgmVPee00Ddnv6rnugR-31">
          <mxGeometry x="1" relative="1" as="geometry">
            <mxPoint as="offset" />
          </mxGeometry>
        </mxCell>
        <mxCell id="2rgmVPee00Ddnv6rnugR-35" value="Repository" style="html=1;overflow=block;blockSpacing=1;swimlane;childLayout=stackLayout;horizontal=1;horizontalStack=0;resizeParent=1;resizeParentMax=0;resizeLast=0;collapsible=0;fontStyle=0;marginBottom=0;swimlaneFillColor=#ffffff;startSize=25;whiteSpace=wrap;fontSize=13;align=left;spacing=0;strokeColor=#282c33;strokeOpacity=100;fillOpacity=100;rounded=1;absoluteArcSize=1;arcSize=9;fillColor=#ffffff;strokeWidth=1.5;" vertex="1" parent="1">
          <mxGeometry x="590" y="-1070" width="330" height="744.25" as="geometry" />
        </mxCell>
        <mxCell id="2rgmVPee00Ddnv6rnugR-36" value="&lt;div style=&quot;display: flex; justify-content: null; text-align: null; align-items: baseline; font-size: 0; line-height: 1.25;margin-top: -2px;&quot;&gt;&lt;span&gt;&lt;span style=&quot;font-size:13px;&quot;&gt;- id: String&#xa;&lt;/span&gt;&lt;/span&gt;&lt;/div&gt;&lt;div style=&quot;display: flex; justify-content: null; text-align: null; align-items: baseline; font-size: 0; line-height: 1.25;margin-top: -2px;&quot;&gt;&lt;span&gt;&lt;span style=&quot;font-size:13px;&quot;&gt;- title: String&#xa;&lt;/span&gt;&lt;/span&gt;&lt;/div&gt;&lt;div style=&quot;display: flex; justify-content: null; text-align: null; align-items: baseline; font-size: 0; line-height: 1.25;margin-top: -2px;&quot;&gt;&lt;span&gt;&lt;span style=&quot;font-size:13px;&quot;&gt;- description: String&#xa;&lt;/span&gt;&lt;/span&gt;&lt;/div&gt;&lt;div style=&quot;display: flex; justify-content: null; text-align: null; align-items: baseline; font-size: 0; line-height: 1.25;margin-top: -2px;&quot;&gt;&lt;span&gt;&lt;span style=&quot;font-size:13px;&quot;&gt;- course: Course&#xa;&lt;/span&gt;&lt;/span&gt;&lt;/div&gt;&lt;div style=&quot;display: flex; justify-content: null; text-align: null; align-items: baseline; font-size: 0; line-height: 1.25;margin-top: -2px;&quot;&gt;&lt;span&gt;&lt;span style=&quot;font-size:13px;&quot;&gt;- deadline : Date&#xa;&lt;/span&gt;&lt;/span&gt;&lt;/div&gt;&lt;div style=&quot;display: flex; justify-content: null; text-align: null; align-items: baseline; font-size: 0; line-height: 1.25;margin-top: -2px;&quot;&gt;&lt;span&gt;&lt;span style=&quot;font-size:13px;&quot;&gt;- unitTestCases: []UnitTestCases&lt;/span&gt;&lt;/span&gt;&lt;/div&gt;" style="part=1;html=1;resizeHeight=0;strokeColor=none;fillColor=none;align=left;verticalAlign=middle;spacingLeft=4;spacingRight=4;overflow=hidden;rotatable=0;points=[[0,0.5],[1,0.5]];portConstraint=eastwest;swimlaneFillColor=#ffffff;strokeOpacity=100;fillOpacity=100;whiteSpace=wrap;fontSize=13;" vertex="1" parent="2rgmVPee00Ddnv6rnugR-35">
          <mxGeometry y="25" width="330" height="352" as="geometry" />
        </mxCell>
        <mxCell id="2rgmVPee00Ddnv6rnugR-37" value="" style="line;strokeWidth=1;fillColor=none;align=left;verticalAlign=middle;spacingTop=-1;spacingLeft=3;spacingRight=3;rotatable=0;labelPosition=right;points=[];portConstraint=eastwest;" vertex="1" parent="2rgmVPee00Ddnv6rnugR-35">
          <mxGeometry y="377" width="330" height="8" as="geometry" />
        </mxCell>
        <mxCell id="2rgmVPee00Ddnv6rnugR-38" value="&lt;div style=&quot;display: flex; justify-content: null; text-align: null; align-items: baseline; font-size: 0; line-height: 1.25;margin-top: -2px;&quot;&gt;&lt;span&gt;&lt;span style=&quot;font-size:13px;&quot;&gt;+ createRepository(req, res): githup-repo&#xa;&lt;/span&gt;&lt;/span&gt;&lt;/div&gt;&lt;div style=&quot;display: flex; justify-content: null; text-align: null; align-items: baseline; font-size: 0; line-height: 1.25;margin-top: -2px;&quot;&gt;&lt;span&gt;&lt;span style=&quot;font-size:13px;&quot;&gt;+ checkRepository(req, res): githup-repo&#xa;&lt;/span&gt;&lt;/span&gt;&lt;/div&gt;&lt;div style=&quot;display: flex; justify-content: null; text-align: null; align-items: baseline; font-size: 0; line-height: 1.25;margin-top: -2px;&quot;&gt;&lt;span&gt;&lt;span style=&quot;font-size:13px;&quot;&gt;+ sendRepositoryForGrade(req, res):void&#xa;&lt;/span&gt;&lt;/span&gt;&lt;/div&gt;&lt;div style=&quot;display: flex; justify-content: null; text-align: null; align-items: baseline; font-size: 0; line-height: 1.25;margin-top: -2px;&quot;&gt;&lt;span&gt;&lt;span style=&quot;font-size:13px;&quot;&gt;+ getRepositoryById(req, res): githup-repo&#xa;&lt;/span&gt;&lt;/span&gt;&lt;/div&gt;&lt;div style=&quot;display: flex; justify-content: null; text-align: null; align-items: baseline; font-size: 0; line-height: 1.25;margin-top: -2px;&quot;&gt;&lt;span&gt;&lt;span style=&quot;font-size:13px;&quot;&gt;+getAllRepositories(req, res)&#xa;&lt;/span&gt;&lt;/span&gt;&lt;/div&gt;&lt;div style=&quot;display: flex; justify-content: null; text-align: null; align-items: baseline; font-size: 0; line-height: 1.25;margin-top: -2px;&quot;&gt;&lt;span&gt;&lt;span style=&quot;font-size:13px;&quot;&gt;+ viewStudentFeedback(Task task, Student student) : String&#xa;&lt;/span&gt;&lt;/span&gt;&lt;/div&gt;&lt;div style=&quot;display: flex; justify-content: null; text-align: null; align-items: baseline; font-size: 0; line-height: 1.25;margin-top: -2px;&quot;&gt;&lt;span&gt;&lt;span style=&quot;font-size:13px;&quot;&gt;+ showStudentGrade(Task task, Student student) : String&#xa;&lt;/span&gt;&lt;/span&gt;&lt;/div&gt;&lt;div style=&quot;display: flex; justify-content: null; text-align: null; align-items: baseline; font-size: 0; line-height: 1.25;margin-top: -2px;&quot;&gt;&lt;span&gt;&lt;span style=&quot;font-size:13px;&quot;&gt;&#xa;&lt;/span&gt;&lt;/span&gt;&lt;/div&gt;&lt;div style=&quot;display: flex; justify-content: center; text-align: center; align-items: baseline; font-size: 0; line-height: 1.25;margin-top: -2px;&quot;&gt;&lt;span&gt;&lt;/span&gt;&lt;/div&gt;" style="part=1;resizeHeight=0;strokeColor=none;fillColor=none;align=left;verticalAlign=middle;spacingLeft=4;spacingRight=4;rotatable=0;points=[[0,0.5],[1,0.5]];portConstraint=eastwest;swimlaneFillColor=#ffffff;strokeOpacity=100;fillOpacity=100;whiteSpace=wrap;overflow=block;blockSpacing=1;html=1;fontSize=13;" vertex="1" parent="2rgmVPee00Ddnv6rnugR-35">
          <mxGeometry y="385" width="330" height="359.25" as="geometry" />
        </mxCell>
        <mxCell id="2rgmVPee00Ddnv6rnugR-208" value="Repository" style="swimlane;fontStyle=1;childLayout=stackLayout;horizontal=1;startSize=26;horizontalStack=0;resizeParent=1;resizeParentMax=0;resizeLast=0;collapsible=1;marginBottom=0;" vertex="1" parent="1">
          <mxGeometry x="990" y="-870" width="400" height="502" as="geometry" />
        </mxCell>
        <mxCell id="2rgmVPee00Ddnv6rnugR-209" value="-github_repo_id: INTEGER" style="text;strokeColor=none;fillColor=none;align=left;verticalAlign=top;spacingLeft=4;spacingRight=4;overflow=hidden;rotatable=0;points=[[0,0.5],[1,0.5]];portConstraint=eastwest;" vertex="1" parent="2rgmVPee00Ddnv6rnugR-208">
          <mxGeometry y="26" width="400" height="26" as="geometry" />
        </mxCell>
        <mxCell id="2rgmVPee00Ddnv6rnugR-210" value="-name: STRING(128)" style="text;strokeColor=none;fillColor=none;align=left;verticalAlign=top;spacingLeft=4;spacingRight=4;overflow=hidden;rotatable=0;points=[[0,0.5],[1,0.5]];portConstraint=eastwest;" vertex="1" parent="2rgmVPee00Ddnv6rnugR-208">
          <mxGeometry y="52" width="400" height="26" as="geometry" />
        </mxCell>
        <mxCell id="2rgmVPee00Ddnv6rnugR-211" value="-created_at: DATE" style="text;strokeColor=none;fillColor=none;align=left;verticalAlign=top;spacingLeft=4;spacingRight=4;overflow=hidden;rotatable=0;points=[[0,0.5],[1,0.5]];portConstraint=eastwest;" vertex="1" parent="2rgmVPee00Ddnv6rnugR-208">
          <mxGeometry y="78" width="400" height="26" as="geometry" />
        </mxCell>
        <mxCell id="2rgmVPee00Ddnv6rnugR-212" value="-description: STRING" style="text;strokeColor=none;fillColor=none;align=left;verticalAlign=top;spacingLeft=4;spacingRight=4;overflow=hidden;rotatable=0;points=[[0,0.5],[1,0.5]];portConstraint=eastwest;" vertex="1" parent="2rgmVPee00Ddnv6rnugR-208">
          <mxGeometry y="104" width="400" height="26" as="geometry" />
        </mxCell>
        <mxCell id="2rgmVPee00Ddnv6rnugR-213" value="-owner: STRING(128)" style="text;strokeColor=none;fillColor=none;align=left;verticalAlign=top;spacingLeft=4;spacingRight=4;overflow=hidden;rotatable=0;points=[[0,0.5],[1,0.5]];portConstraint=eastwest;" vertex="1" parent="2rgmVPee00Ddnv6rnugR-208">
          <mxGeometry y="130" width="400" height="26" as="geometry" />
        </mxCell>
        <mxCell id="2rgmVPee00Ddnv6rnugR-214" value="-url: STRING(255)" style="text;strokeColor=none;fillColor=none;align=left;verticalAlign=top;spacingLeft=4;spacingRight=4;overflow=hidden;rotatable=0;points=[[0,0.5],[1,0.5]];portConstraint=eastwest;" vertex="1" parent="2rgmVPee00Ddnv6rnugR-208">
          <mxGeometry y="156" width="400" height="26" as="geometry" />
        </mxCell>
        <mxCell id="2rgmVPee00Ddnv6rnugR-215" value="-last_updated_at: DATE" style="text;strokeColor=none;fillColor=none;align=left;verticalAlign=top;spacingLeft=4;spacingRight=4;overflow=hidden;rotatable=0;points=[[0,0.5],[1,0.5]];portConstraint=eastwest;" vertex="1" parent="2rgmVPee00Ddnv6rnugR-208">
          <mxGeometry y="182" width="400" height="26" as="geometry" />
        </mxCell>
        <mxCell id="2rgmVPee00Ddnv6rnugR-216" value="-type: ENUM(template_student, template_solution, template_question)" style="text;strokeColor=none;fillColor=none;align=left;verticalAlign=top;spacingLeft=4;spacingRight=4;overflow=hidden;rotatable=0;points=[[0,0.5],[1,0.5]];portConstraint=eastwest;" vertex="1" parent="2rgmVPee00Ddnv6rnugR-208">
          <mxGeometry y="208" width="400" height="26" as="geometry" />
        </mxCell>
        <mxCell id="2rgmVPee00Ddnv6rnugR-217" value="-github_org: STRING" style="text;strokeColor=none;fillColor=none;align=left;verticalAlign=top;spacingLeft=4;spacingRight=4;overflow=hidden;rotatable=0;points=[[0,0.5],[1,0.5]];portConstraint=eastwest;" vertex="1" parent="2rgmVPee00Ddnv6rnugR-208">
          <mxGeometry y="234" width="400" height="26" as="geometry" />
        </mxCell>
        <mxCell id="2rgmVPee00Ddnv6rnugR-218" value="-java_version: STRING" style="text;strokeColor=none;fillColor=none;align=left;verticalAlign=top;spacingLeft=4;spacingRight=4;overflow=hidden;rotatable=0;points=[[0,0.5],[1,0.5]];portConstraint=eastwest;" vertex="1" parent="2rgmVPee00Ddnv6rnugR-208">
          <mxGeometry y="260" width="400" height="26" as="geometry" />
        </mxCell>
        <mxCell id="2rgmVPee00Ddnv6rnugR-219" value="-task_id: INTEGER" style="text;strokeColor=none;fillColor=none;align=left;verticalAlign=top;spacingLeft=4;spacingRight=4;overflow=hidden;rotatable=0;points=[[0,0.5],[1,0.5]];portConstraint=eastwest;" vertex="1" parent="2rgmVPee00Ddnv6rnugR-208">
          <mxGeometry y="286" width="400" height="26" as="geometry" />
        </mxCell>
        <mxCell id="2rgmVPee00Ddnv6rnugR-220" value="" style="line;strokeWidth=1;fillColor=none;align=left;verticalAlign=middle;spacingTop=-1;spacingLeft=3;spacingRight=3;rotatable=0;labelPosition=right;points=[];portConstraint=eastwest;" vertex="1" parent="2rgmVPee00Ddnv6rnugR-208">
          <mxGeometry y="312" width="400" height="8" as="geometry" />
        </mxCell>
        <mxCell id="2rgmVPee00Ddnv6rnugR-221" value="+createRepository(): void" style="text;strokeColor=none;fillColor=none;align=left;verticalAlign=top;spacingLeft=4;spacingRight=4;overflow=hidden;rotatable=0;points=[[0,0.5],[1,0.5]];portConstraint=eastwest;" vertex="1" parent="2rgmVPee00Ddnv6rnugR-208">
          <mxGeometry y="320" width="400" height="26" as="geometry" />
        </mxCell>
        <mxCell id="2rgmVPee00Ddnv6rnugR-222" value="+checkRepository(): void" style="text;strokeColor=none;fillColor=none;align=left;verticalAlign=top;spacingLeft=4;spacingRight=4;overflow=hidden;rotatable=0;points=[[0,0.5],[1,0.5]];portConstraint=eastwest;" vertex="1" parent="2rgmVPee00Ddnv6rnugR-208">
          <mxGeometry y="346" width="400" height="26" as="geometry" />
        </mxCell>
        <mxCell id="2rgmVPee00Ddnv6rnugR-223" value="+sendRepositoryForGrade(): void" style="text;strokeColor=none;fillColor=none;align=left;verticalAlign=top;spacingLeft=4;spacingRight=4;overflow=hidden;rotatable=0;points=[[0,0.5],[1,0.5]];portConstraint=eastwest;" vertex="1" parent="2rgmVPee00Ddnv6rnugR-208">
          <mxGeometry y="372" width="400" height="26" as="geometry" />
        </mxCell>
        <mxCell id="2rgmVPee00Ddnv6rnugR-224" value="+getRepositoryById(): void" style="text;strokeColor=none;fillColor=none;align=left;verticalAlign=top;spacingLeft=4;spacingRight=4;overflow=hidden;rotatable=0;points=[[0,0.5],[1,0.5]];portConstraint=eastwest;" vertex="1" parent="2rgmVPee00Ddnv6rnugR-208">
          <mxGeometry y="398" width="400" height="26" as="geometry" />
        </mxCell>
        <mxCell id="2rgmVPee00Ddnv6rnugR-225" value="+getAllRepositories(): void" style="text;strokeColor=none;fillColor=none;align=left;verticalAlign=top;spacingLeft=4;spacingRight=4;overflow=hidden;rotatable=0;points=[[0,0.5],[1,0.5]];portConstraint=eastwest;" vertex="1" parent="2rgmVPee00Ddnv6rnugR-208">
          <mxGeometry y="424" width="400" height="26" as="geometry" />
        </mxCell>
        <mxCell id="2rgmVPee00Ddnv6rnugR-226" value="+updateRepository(): void" style="text;strokeColor=none;fillColor=none;align=left;verticalAlign=top;spacingLeft=4;spacingRight=4;overflow=hidden;rotatable=0;points=[[0,0.5],[1,0.5]];portConstraint=eastwest;" vertex="1" parent="2rgmVPee00Ddnv6rnugR-208">
          <mxGeometry y="450" width="400" height="26" as="geometry" />
        </mxCell>
        <mxCell id="2rgmVPee00Ddnv6rnugR-227" value="+deleteRepository(): void" style="text;strokeColor=none;fillColor=none;align=left;verticalAlign=top;spacingLeft=4;spacingRight=4;overflow=hidden;rotatable=0;points=[[0,0.5],[1,0.5]];portConstraint=eastwest;" vertex="1" parent="2rgmVPee00Ddnv6rnugR-208">
          <mxGeometry y="476" width="400" height="26" as="geometry" />
        </mxCell>
      </root>
    </mxGraphModel>
  </diagram>
  <diagram id="D_Ei3WZOht1L6a1J-Orw" name="Page-2">
    <mxGraphModel dx="3840" dy="2500" grid="1" gridSize="10" guides="1" tooltips="1" connect="1" arrows="1" fold="1" page="1" pageScale="1" pageWidth="900" pageHeight="600" math="0" shadow="0">
      <root>
        <mxCell id="0" />
        <mxCell id="1" parent="0" />
        <mxCell id="WW4eIhH_1Q08LkNv98Io-1" value="Repository" style="swimlane;fontStyle=1;childLayout=stackLayout;horizontal=1;startSize=26;horizontalStack=0;resizeParent=1;resizeParentMax=0;resizeLast=0;collapsible=1;marginBottom=0;" vertex="1" parent="1">
          <mxGeometry x="1300" y="-950" width="400" height="502" as="geometry" />
        </mxCell>
        <mxCell id="WW4eIhH_1Q08LkNv98Io-2" value="-github_repo_id: INTEGER" style="text;strokeColor=none;fillColor=none;align=left;verticalAlign=top;spacingLeft=4;spacingRight=4;overflow=hidden;rotatable=0;points=[[0,0.5],[1,0.5]];portConstraint=eastwest;" vertex="1" parent="WW4eIhH_1Q08LkNv98Io-1">
          <mxGeometry y="26" width="400" height="26" as="geometry" />
        </mxCell>
        <mxCell id="WW4eIhH_1Q08LkNv98Io-3" value="-name: STRING(128)" style="text;strokeColor=none;fillColor=none;align=left;verticalAlign=top;spacingLeft=4;spacingRight=4;overflow=hidden;rotatable=0;points=[[0,0.5],[1,0.5]];portConstraint=eastwest;" vertex="1" parent="WW4eIhH_1Q08LkNv98Io-1">
          <mxGeometry y="52" width="400" height="26" as="geometry" />
        </mxCell>
        <mxCell id="WW4eIhH_1Q08LkNv98Io-4" value="-created_at: DATE" style="text;strokeColor=none;fillColor=none;align=left;verticalAlign=top;spacingLeft=4;spacingRight=4;overflow=hidden;rotatable=0;points=[[0,0.5],[1,0.5]];portConstraint=eastwest;" vertex="1" parent="WW4eIhH_1Q08LkNv98Io-1">
          <mxGeometry y="78" width="400" height="26" as="geometry" />
        </mxCell>
        <mxCell id="WW4eIhH_1Q08LkNv98Io-5" value="-description: STRING" style="text;strokeColor=none;fillColor=none;align=left;verticalAlign=top;spacingLeft=4;spacingRight=4;overflow=hidden;rotatable=0;points=[[0,0.5],[1,0.5]];portConstraint=eastwest;" vertex="1" parent="WW4eIhH_1Q08LkNv98Io-1">
          <mxGeometry y="104" width="400" height="26" as="geometry" />
        </mxCell>
        <mxCell id="WW4eIhH_1Q08LkNv98Io-6" value="-owner: STRING(128)" style="text;strokeColor=none;fillColor=none;align=left;verticalAlign=top;spacingLeft=4;spacingRight=4;overflow=hidden;rotatable=0;points=[[0,0.5],[1,0.5]];portConstraint=eastwest;" vertex="1" parent="WW4eIhH_1Q08LkNv98Io-1">
          <mxGeometry y="130" width="400" height="26" as="geometry" />
        </mxCell>
        <mxCell id="WW4eIhH_1Q08LkNv98Io-7" value="-url: STRING(255)" style="text;strokeColor=none;fillColor=none;align=left;verticalAlign=top;spacingLeft=4;spacingRight=4;overflow=hidden;rotatable=0;points=[[0,0.5],[1,0.5]];portConstraint=eastwest;" vertex="1" parent="WW4eIhH_1Q08LkNv98Io-1">
          <mxGeometry y="156" width="400" height="26" as="geometry" />
        </mxCell>
        <mxCell id="WW4eIhH_1Q08LkNv98Io-8" value="-last_updated_at: DATE" style="text;strokeColor=none;fillColor=none;align=left;verticalAlign=top;spacingLeft=4;spacingRight=4;overflow=hidden;rotatable=0;points=[[0,0.5],[1,0.5]];portConstraint=eastwest;" vertex="1" parent="WW4eIhH_1Q08LkNv98Io-1">
          <mxGeometry y="182" width="400" height="26" as="geometry" />
        </mxCell>
        <mxCell id="WW4eIhH_1Q08LkNv98Io-9" value="-type: ENUM(template_student, template_solution, template_question)" style="text;strokeColor=none;fillColor=none;align=left;verticalAlign=top;spacingLeft=4;spacingRight=4;overflow=hidden;rotatable=0;points=[[0,0.5],[1,0.5]];portConstraint=eastwest;" vertex="1" parent="WW4eIhH_1Q08LkNv98Io-1">
          <mxGeometry y="208" width="400" height="26" as="geometry" />
        </mxCell>
        <mxCell id="WW4eIhH_1Q08LkNv98Io-10" value="-github_org: STRING" style="text;strokeColor=none;fillColor=none;align=left;verticalAlign=top;spacingLeft=4;spacingRight=4;overflow=hidden;rotatable=0;points=[[0,0.5],[1,0.5]];portConstraint=eastwest;" vertex="1" parent="WW4eIhH_1Q08LkNv98Io-1">
          <mxGeometry y="234" width="400" height="26" as="geometry" />
        </mxCell>
        <mxCell id="WW4eIhH_1Q08LkNv98Io-11" value="-java_version: STRING" style="text;strokeColor=none;fillColor=none;align=left;verticalAlign=top;spacingLeft=4;spacingRight=4;overflow=hidden;rotatable=0;points=[[0,0.5],[1,0.5]];portConstraint=eastwest;" vertex="1" parent="WW4eIhH_1Q08LkNv98Io-1">
          <mxGeometry y="260" width="400" height="26" as="geometry" />
        </mxCell>
        <mxCell id="WW4eIhH_1Q08LkNv98Io-12" value="-task_id: INTEGER" style="text;strokeColor=none;fillColor=none;align=left;verticalAlign=top;spacingLeft=4;spacingRight=4;overflow=hidden;rotatable=0;points=[[0,0.5],[1,0.5]];portConstraint=eastwest;" vertex="1" parent="WW4eIhH_1Q08LkNv98Io-1">
          <mxGeometry y="286" width="400" height="26" as="geometry" />
        </mxCell>
        <mxCell id="WW4eIhH_1Q08LkNv98Io-13" value="" style="line;strokeWidth=1;fillColor=none;align=left;verticalAlign=middle;spacingTop=-1;spacingLeft=3;spacingRight=3;rotatable=0;labelPosition=right;points=[];portConstraint=eastwest;" vertex="1" parent="WW4eIhH_1Q08LkNv98Io-1">
          <mxGeometry y="312" width="400" height="8" as="geometry" />
        </mxCell>
        <mxCell id="WW4eIhH_1Q08LkNv98Io-14" value="+createRepository(): void" style="text;strokeColor=none;fillColor=none;align=left;verticalAlign=top;spacingLeft=4;spacingRight=4;overflow=hidden;rotatable=0;points=[[0,0.5],[1,0.5]];portConstraint=eastwest;" vertex="1" parent="WW4eIhH_1Q08LkNv98Io-1">
          <mxGeometry y="320" width="400" height="26" as="geometry" />
        </mxCell>
        <mxCell id="WW4eIhH_1Q08LkNv98Io-15" value="+checkRepository(): void" style="text;strokeColor=none;fillColor=none;align=left;verticalAlign=top;spacingLeft=4;spacingRight=4;overflow=hidden;rotatable=0;points=[[0,0.5],[1,0.5]];portConstraint=eastwest;" vertex="1" parent="WW4eIhH_1Q08LkNv98Io-1">
          <mxGeometry y="346" width="400" height="26" as="geometry" />
        </mxCell>
        <mxCell id="WW4eIhH_1Q08LkNv98Io-16" value="+sendRepositoryForGrade(): void" style="text;strokeColor=none;fillColor=none;align=left;verticalAlign=top;spacingLeft=4;spacingRight=4;overflow=hidden;rotatable=0;points=[[0,0.5],[1,0.5]];portConstraint=eastwest;" vertex="1" parent="WW4eIhH_1Q08LkNv98Io-1">
          <mxGeometry y="372" width="400" height="26" as="geometry" />
        </mxCell>
        <mxCell id="WW4eIhH_1Q08LkNv98Io-17" value="+getRepositoryById(): void" style="text;strokeColor=none;fillColor=none;align=left;verticalAlign=top;spacingLeft=4;spacingRight=4;overflow=hidden;rotatable=0;points=[[0,0.5],[1,0.5]];portConstraint=eastwest;" vertex="1" parent="WW4eIhH_1Q08LkNv98Io-1">
          <mxGeometry y="398" width="400" height="26" as="geometry" />
        </mxCell>
        <mxCell id="WW4eIhH_1Q08LkNv98Io-18" value="+getAllRepositories(): void" style="text;strokeColor=none;fillColor=none;align=left;verticalAlign=top;spacingLeft=4;spacingRight=4;overflow=hidden;rotatable=0;points=[[0,0.5],[1,0.5]];portConstraint=eastwest;" vertex="1" parent="WW4eIhH_1Q08LkNv98Io-1">
          <mxGeometry y="424" width="400" height="26" as="geometry" />
        </mxCell>
        <mxCell id="WW4eIhH_1Q08LkNv98Io-19" value="+updateRepository(): void" style="text;strokeColor=none;fillColor=none;align=left;verticalAlign=top;spacingLeft=4;spacingRight=4;overflow=hidden;rotatable=0;points=[[0,0.5],[1,0.5]];portConstraint=eastwest;" vertex="1" parent="WW4eIhH_1Q08LkNv98Io-1">
          <mxGeometry y="450" width="400" height="26" as="geometry" />
        </mxCell>
        <mxCell id="WW4eIhH_1Q08LkNv98Io-20" value="+deleteRepository(): void" style="text;strokeColor=none;fillColor=none;align=left;verticalAlign=top;spacingLeft=4;spacingRight=4;overflow=hidden;rotatable=0;points=[[0,0.5],[1,0.5]];portConstraint=eastwest;" vertex="1" parent="WW4eIhH_1Q08LkNv98Io-1">
          <mxGeometry y="476" width="400" height="26" as="geometry" />
        </mxCell>
        <mxCell id="QXNhinaaJkSOpzh1874o-1" value="Instructor" style="swimlane;fontStyle=1;childLayout=stackLayout;horizontal=1;startSize=26;horizontalStack=0;resizeParent=1;resizeParentMax=0;resizeLast=0;collapsible=1;marginBottom=0;" vertex="1" parent="1">
          <mxGeometry x="710" y="-1140" width="420" height="944" as="geometry" />
        </mxCell>
        <mxCell id="QXNhinaaJkSOpzh1874o-2" value="-taughtCourses: []Course" style="text;strokeColor=none;fillColor=none;align=left;verticalAlign=top;spacingLeft=4;spacingRight=4;overflow=hidden;rotatable=0;points=[[0,0.5],[1,0.5]];portConstraint=eastwest;" vertex="1" parent="QXNhinaaJkSOpzh1874o-1">
          <mxGeometry y="26" width="420" height="26" as="geometry" />
        </mxCell>
        <mxCell id="QXNhinaaJkSOpzh1874o-3" value="-department: String" style="text;strokeColor=none;fillColor=none;align=left;verticalAlign=top;spacingLeft=4;spacingRight=4;overflow=hidden;rotatable=0;points=[[0,0.5],[1,0.5]];portConstraint=eastwest;" vertex="1" parent="QXNhinaaJkSOpzh1874o-1">
          <mxGeometry y="52" width="420" height="26" as="geometry" />
        </mxCell>
        <mxCell id="QXNhinaaJkSOpzh1874o-4" value="" style="line;strokeWidth=1;fillColor=none;align=left;verticalAlign=middle;spacingTop=-1;spacingLeft=3;spacingRight=3;rotatable=0;labelPosition=right;points=[];portConstraint=eastwest;" vertex="1" parent="QXNhinaaJkSOpzh1874o-1">
          <mxGeometry y="78" width="420" height="8" as="geometry" />
        </mxCell>
        <mxCell id="QXNhinaaJkSOpzh1874o-5" value="+addCourse(String name, String description, Instructor instructor): Course" style="text;strokeColor=none;fillColor=none;align=left;verticalAlign=top;spacingLeft=4;spacingRight=4;overflow=hidden;rotatable=0;points=[[0,0.5],[1,0.5]];portConstraint=eastwest;" vertex="1" parent="QXNhinaaJkSOpzh1874o-1">
          <mxGeometry y="86" width="420" height="26" as="geometry" />
        </mxCell>
        <mxCell id="QXNhinaaJkSOpzh1874o-6" value="+updateCourse(Course course, String name, String description): void" style="text;strokeColor=none;fillColor=none;align=left;verticalAlign=top;spacingLeft=4;spacingRight=4;overflow=hidden;rotatable=0;points=[[0,0.5],[1,0.5]];portConstraint=eastwest;" vertex="1" parent="QXNhinaaJkSOpzh1874o-1">
          <mxGeometry y="112" width="420" height="26" as="geometry" />
        </mxCell>
        <mxCell id="QXNhinaaJkSOpzh1874o-7" value="+deleteCourse(Course course): void" style="text;strokeColor=none;fillColor=none;align=left;verticalAlign=top;spacingLeft=4;spacingRight=4;overflow=hidden;rotatable=0;points=[[0,0.5],[1,0.5]];portConstraint=eastwest;" vertex="1" parent="QXNhinaaJkSOpzh1874o-1">
          <mxGeometry y="138" width="420" height="26" as="geometry" />
        </mxCell>
        <mxCell id="QXNhinaaJkSOpzh1874o-8" value="+searchCourse(): Course" style="text;strokeColor=none;fillColor=none;align=left;verticalAlign=top;spacingLeft=4;spacingRight=4;overflow=hidden;rotatable=0;points=[[0,0.5],[1,0.5]];portConstraint=eastwest;" vertex="1" parent="QXNhinaaJkSOpzh1874o-1">
          <mxGeometry y="164" width="420" height="26" as="geometry" />
        </mxCell>
        <mxCell id="QXNhinaaJkSOpzh1874o-9" value="+getTaughtCourses(): []Course" style="text;strokeColor=none;fillColor=none;align=left;verticalAlign=top;spacingLeft=4;spacingRight=4;overflow=hidden;rotatable=0;points=[[0,0.5],[1,0.5]];portConstraint=eastwest;" vertex="1" parent="QXNhinaaJkSOpzh1874o-1">
          <mxGeometry y="190" width="420" height="26" as="geometry" />
        </mxCell>
        <mxCell id="QXNhinaaJkSOpzh1874o-10" value="+getDepartment(): String" style="text;strokeColor=none;fillColor=none;align=left;verticalAlign=top;spacingLeft=4;spacingRight=4;overflow=hidden;rotatable=0;points=[[0,0.5],[1,0.5]];portConstraint=eastwest;" vertex="1" parent="QXNhinaaJkSOpzh1874o-1">
          <mxGeometry y="216" width="420" height="26" as="geometry" />
        </mxCell>
        <mxCell id="QXNhinaaJkSOpzh1874o-11" value="+setTaughtCourses([]Course): void" style="text;strokeColor=none;fillColor=none;align=left;verticalAlign=top;spacingLeft=4;spacingRight=4;overflow=hidden;rotatable=0;points=[[0,0.5],[1,0.5]];portConstraint=eastwest;" vertex="1" parent="QXNhinaaJkSOpzh1874o-1">
          <mxGeometry y="242" width="420" height="26" as="geometry" />
        </mxCell>
        <mxCell id="QXNhinaaJkSOpzh1874o-12" value="+setDepartment(String): void" style="text;strokeColor=none;fillColor=none;align=left;verticalAlign=top;spacingLeft=4;spacingRight=4;overflow=hidden;rotatable=0;points=[[0,0.5],[1,0.5]];portConstraint=eastwest;" vertex="1" parent="QXNhinaaJkSOpzh1874o-1">
          <mxGeometry y="268" width="420" height="26" as="geometry" />
        </mxCell>
        <mxCell id="QXNhinaaJkSOpzh1874o-13" value="+changeLanguage(): void" style="text;strokeColor=none;fillColor=none;align=left;verticalAlign=top;spacingLeft=4;spacingRight=4;overflow=hidden;rotatable=0;points=[[0,0.5],[1,0.5]];portConstraint=eastwest;" vertex="1" parent="QXNhinaaJkSOpzh1874o-1">
          <mxGeometry y="294" width="420" height="26" as="geometry" />
        </mxCell>
        <mxCell id="QXNhinaaJkSOpzh1874o-14" value="+changeProfilePic(): void" style="text;strokeColor=none;fillColor=none;align=left;verticalAlign=top;spacingLeft=4;spacingRight=4;overflow=hidden;rotatable=0;points=[[0,0.5],[1,0.5]];portConstraint=eastwest;" vertex="1" parent="QXNhinaaJkSOpzh1874o-1">
          <mxGeometry y="320" width="420" height="26" as="geometry" />
        </mxCell>
        <mxCell id="QXNhinaaJkSOpzh1874o-15" value="+forgetPass(String username): void" style="text;strokeColor=none;fillColor=none;align=left;verticalAlign=top;spacingLeft=4;spacingRight=4;overflow=hidden;rotatable=0;points=[[0,0.5],[1,0.5]];portConstraint=eastwest;" vertex="1" parent="QXNhinaaJkSOpzh1874o-1">
          <mxGeometry y="346" width="420" height="26" as="geometry" />
        </mxCell>
        <mxCell id="QXNhinaaJkSOpzh1874o-16" value="+contactSupport(): void" style="text;strokeColor=none;fillColor=none;align=left;verticalAlign=top;spacingLeft=4;spacingRight=4;overflow=hidden;rotatable=0;points=[[0,0.5],[1,0.5]];portConstraint=eastwest;" vertex="1" parent="QXNhinaaJkSOpzh1874o-1">
          <mxGeometry y="372" width="420" height="26" as="geometry" />
        </mxCell>
        <mxCell id="QXNhinaaJkSOpzh1874o-17" value="+sendMessages(String message): void" style="text;strokeColor=none;fillColor=none;align=left;verticalAlign=top;spacingLeft=4;spacingRight=4;overflow=hidden;rotatable=0;points=[[0,0.5],[1,0.5]];portConstraint=eastwest;" vertex="1" parent="QXNhinaaJkSOpzh1874o-1">
          <mxGeometry y="398" width="420" height="26" as="geometry" />
        </mxCell>
        <mxCell id="QXNhinaaJkSOpzh1874o-18" value="+register(String username, String password): void" style="text;strokeColor=none;fillColor=none;align=left;verticalAlign=top;spacingLeft=4;spacingRight=4;overflow=hidden;rotatable=0;points=[[0,0.5],[1,0.5]];portConstraint=eastwest;" vertex="1" parent="QXNhinaaJkSOpzh1874o-1">
          <mxGeometry y="424" width="420" height="26" as="geometry" />
        </mxCell>
        <mxCell id="QXNhinaaJkSOpzh1874o-19" value="+login(String username, String password): void" style="text;strokeColor=none;fillColor=none;align=left;verticalAlign=top;spacingLeft=4;spacingRight=4;overflow=hidden;rotatable=0;points=[[0,0.5],[1,0.5]];portConstraint=eastwest;" vertex="1" parent="QXNhinaaJkSOpzh1874o-1">
          <mxGeometry y="450" width="420" height="26" as="geometry" />
        </mxCell>
        <mxCell id="QXNhinaaJkSOpzh1874o-20" value="+handleClick(): void" style="text;strokeColor=none;fillColor=none;align=left;verticalAlign=top;spacingLeft=4;spacingRight=4;overflow=hidden;rotatable=0;points=[[0,0.5],[1,0.5]];portConstraint=eastwest;" vertex="1" parent="QXNhinaaJkSOpzh1874o-1">
          <mxGeometry y="476" width="420" height="26" as="geometry" />
        </mxCell>
        <mxCell id="QXNhinaaJkSOpzh1874o-21" value="+logout(): void" style="text;strokeColor=none;fillColor=none;align=left;verticalAlign=top;spacingLeft=4;spacingRight=4;overflow=hidden;rotatable=0;points=[[0,0.5],[1,0.5]];portConstraint=eastwest;" vertex="1" parent="QXNhinaaJkSOpzh1874o-1">
          <mxGeometry y="502" width="420" height="26" as="geometry" />
        </mxCell>
        <mxCell id="QXNhinaaJkSOpzh1874o-22" value="+viewCourses(): void" style="text;strokeColor=none;fillColor=none;align=left;verticalAlign=top;spacingLeft=4;spacingRight=4;overflow=hidden;rotatable=0;points=[[0,0.5],[1,0.5]];portConstraint=eastwest;" vertex="1" parent="QXNhinaaJkSOpzh1874o-1">
          <mxGeometry y="528" width="420" height="26" as="geometry" />
        </mxCell>
        <mxCell id="QXNhinaaJkSOpzh1874o-23" value="+viewGrade(): void" style="text;strokeColor=none;fillColor=none;align=left;verticalAlign=top;spacingLeft=4;spacingRight=4;overflow=hidden;rotatable=0;points=[[0,0.5],[1,0.5]];portConstraint=eastwest;" vertex="1" parent="QXNhinaaJkSOpzh1874o-1">
          <mxGeometry y="554" width="420" height="26" as="geometry" />
        </mxCell>
        <mxCell id="QXNhinaaJkSOpzh1874o-24" value="+getId(): int" style="text;strokeColor=none;fillColor=none;align=left;verticalAlign=top;spacingLeft=4;spacingRight=4;overflow=hidden;rotatable=0;points=[[0,0.5],[1,0.5]];portConstraint=eastwest;" vertex="1" parent="QXNhinaaJkSOpzh1874o-1">
          <mxGeometry y="580" width="420" height="26" as="geometry" />
        </mxCell>
        <mxCell id="QXNhinaaJkSOpzh1874o-25" value="+getUsername(): String" style="text;strokeColor=none;fillColor=none;align=left;verticalAlign=top;spacingLeft=4;spacingRight=4;overflow=hidden;rotatable=0;points=[[0,0.5],[1,0.5]];portConstraint=eastwest;" vertex="1" parent="QXNhinaaJkSOpzh1874o-1">
          <mxGeometry y="606" width="420" height="26" as="geometry" />
        </mxCell>
        <mxCell id="QXNhinaaJkSOpzh1874o-26" value="+getName(): String" style="text;strokeColor=none;fillColor=none;align=left;verticalAlign=top;spacingLeft=4;spacingRight=4;overflow=hidden;rotatable=0;points=[[0,0.5],[1,0.5]];portConstraint=eastwest;" vertex="1" parent="QXNhinaaJkSOpzh1874o-1">
          <mxGeometry y="632" width="420" height="26" as="geometry" />
        </mxCell>
        <mxCell id="QXNhinaaJkSOpzh1874o-27" value="+getPassword(): String" style="text;strokeColor=none;fillColor=none;align=left;verticalAlign=top;spacingLeft=4;spacingRight=4;overflow=hidden;rotatable=0;points=[[0,0.5],[1,0.5]];portConstraint=eastwest;" vertex="1" parent="QXNhinaaJkSOpzh1874o-1">
          <mxGeometry y="658" width="420" height="26" as="geometry" />
        </mxCell>
        <mxCell id="QXNhinaaJkSOpzh1874o-28" value="+getRole(): String" style="text;strokeColor=none;fillColor=none;align=left;verticalAlign=top;spacingLeft=4;spacingRight=4;overflow=hidden;rotatable=0;points=[[0,0.5],[1,0.5]];portConstraint=eastwest;" vertex="1" parent="QXNhinaaJkSOpzh1874o-1">
          <mxGeometry y="684" width="420" height="26" as="geometry" />
        </mxCell>
        <mxCell id="QXNhinaaJkSOpzh1874o-29" value="+getDateOfBirth(): Date" style="text;strokeColor=none;fillColor=none;align=left;verticalAlign=top;spacingLeft=4;spacingRight=4;overflow=hidden;rotatable=0;points=[[0,0.5],[1,0.5]];portConstraint=eastwest;" vertex="1" parent="QXNhinaaJkSOpzh1874o-1">
          <mxGeometry y="710" width="420" height="26" as="geometry" />
        </mxCell>
        <mxCell id="QXNhinaaJkSOpzh1874o-30" value="+getEmail(): String" style="text;strokeColor=none;fillColor=none;align=left;verticalAlign=top;spacingLeft=4;spacingRight=4;overflow=hidden;rotatable=0;points=[[0,0.5],[1,0.5]];portConstraint=eastwest;" vertex="1" parent="QXNhinaaJkSOpzh1874o-1">
          <mxGeometry y="736" width="420" height="26" as="geometry" />
        </mxCell>
        <mxCell id="QXNhinaaJkSOpzh1874o-31" value="+setId(int): void" style="text;strokeColor=none;fillColor=none;align=left;verticalAlign=top;spacingLeft=4;spacingRight=4;overflow=hidden;rotatable=0;points=[[0,0.5],[1,0.5]];portConstraint=eastwest;" vertex="1" parent="QXNhinaaJkSOpzh1874o-1">
          <mxGeometry y="762" width="420" height="26" as="geometry" />
        </mxCell>
        <mxCell id="QXNhinaaJkSOpzh1874o-32" value="+setUsername(String): void" style="text;strokeColor=none;fillColor=none;align=left;verticalAlign=top;spacingLeft=4;spacingRight=4;overflow=hidden;rotatable=0;points=[[0,0.5],[1,0.5]];portConstraint=eastwest;" vertex="1" parent="QXNhinaaJkSOpzh1874o-1">
          <mxGeometry y="788" width="420" height="26" as="geometry" />
        </mxCell>
        <mxCell id="QXNhinaaJkSOpzh1874o-33" value="+setName(String): void" style="text;strokeColor=none;fillColor=none;align=left;verticalAlign=top;spacingLeft=4;spacingRight=4;overflow=hidden;rotatable=0;points=[[0,0.5],[1,0.5]];portConstraint=eastwest;" vertex="1" parent="QXNhinaaJkSOpzh1874o-1">
          <mxGeometry y="814" width="420" height="26" as="geometry" />
        </mxCell>
        <mxCell id="QXNhinaaJkSOpzh1874o-34" value="+setPassword(String): void" style="text;strokeColor=none;fillColor=none;align=left;verticalAlign=top;spacingLeft=4;spacingRight=4;overflow=hidden;rotatable=0;points=[[0,0.5],[1,0.5]];portConstraint=eastwest;" vertex="1" parent="QXNhinaaJkSOpzh1874o-1">
          <mxGeometry y="840" width="420" height="26" as="geometry" />
        </mxCell>
        <mxCell id="QXNhinaaJkSOpzh1874o-35" value="+setRole(String): void" style="text;strokeColor=none;fillColor=none;align=left;verticalAlign=top;spacingLeft=4;spacingRight=4;overflow=hidden;rotatable=0;points=[[0,0.5],[1,0.5]];portConstraint=eastwest;" vertex="1" parent="QXNhinaaJkSOpzh1874o-1">
          <mxGeometry y="866" width="420" height="26" as="geometry" />
        </mxCell>
        <mxCell id="QXNhinaaJkSOpzh1874o-36" value="+setDateOfBirth(Date): void" style="text;strokeColor=none;fillColor=none;align=left;verticalAlign=top;spacingLeft=4;spacingRight=4;overflow=hidden;rotatable=0;points=[[0,0.5],[1,0.5]];portConstraint=eastwest;" vertex="1" parent="QXNhinaaJkSOpzh1874o-1">
          <mxGeometry y="892" width="420" height="26" as="geometry" />
        </mxCell>
        <mxCell id="QXNhinaaJkSOpzh1874o-37" value="+setEmail(): String" style="text;strokeColor=none;fillColor=none;align=left;verticalAlign=top;spacingLeft=4;spacingRight=4;overflow=hidden;rotatable=0;points=[[0,0.5],[1,0.5]];portConstraint=eastwest;" vertex="1" parent="QXNhinaaJkSOpzh1874o-1">
          <mxGeometry y="918" width="420" height="26" as="geometry" />
        </mxCell>
        <mxCell id="QXNhinaaJkSOpzh1874o-38" value="Student" style="swimlane;fontStyle=1;childLayout=stackLayout;horizontal=1;startSize=26;horizontalStack=0;resizeParent=1;resizeParentMax=0;resizeLast=0;collapsible=1;marginBottom=0;" vertex="1" parent="1">
          <mxGeometry x="270" y="-1132" width="290" height="866" as="geometry" />
        </mxCell>
        <mxCell id="QXNhinaaJkSOpzh1874o-39" value="-studentId: int" style="text;strokeColor=none;fillColor=none;align=left;verticalAlign=top;spacingLeft=4;spacingRight=4;overflow=hidden;rotatable=0;points=[[0,0.5],[1,0.5]];portConstraint=eastwest;" vertex="1" parent="QXNhinaaJkSOpzh1874o-38">
          <mxGeometry y="26" width="290" height="26" as="geometry" />
        </mxCell>
        <mxCell id="QXNhinaaJkSOpzh1874o-40" value="-enrolledCourses: []Courses" style="text;strokeColor=none;fillColor=none;align=left;verticalAlign=top;spacingLeft=4;spacingRight=4;overflow=hidden;rotatable=0;points=[[0,0.5],[1,0.5]];portConstraint=eastwest;" vertex="1" parent="QXNhinaaJkSOpzh1874o-38">
          <mxGeometry y="52" width="290" height="26" as="geometry" />
        </mxCell>
        <mxCell id="QXNhinaaJkSOpzh1874o-41" value="" style="line;strokeWidth=1;fillColor=none;align=left;verticalAlign=middle;spacingTop=-1;spacingLeft=3;spacingRight=3;rotatable=0;labelPosition=right;points=[];portConstraint=eastwest;" vertex="1" parent="QXNhinaaJkSOpzh1874o-38">
          <mxGeometry y="78" width="290" height="8" as="geometry" />
        </mxCell>
        <mxCell id="QXNhinaaJkSOpzh1874o-42" value="+submitAssignment(): void" style="text;strokeColor=none;fillColor=none;align=left;verticalAlign=top;spacingLeft=4;spacingRight=4;overflow=hidden;rotatable=0;points=[[0,0.5],[1,0.5]];portConstraint=eastwest;" vertex="1" parent="QXNhinaaJkSOpzh1874o-38">
          <mxGeometry y="86" width="290" height="26" as="geometry" />
        </mxCell>
        <mxCell id="QXNhinaaJkSOpzh1874o-43" value="+getStudentId(): int" style="text;strokeColor=none;fillColor=none;align=left;verticalAlign=top;spacingLeft=4;spacingRight=4;overflow=hidden;rotatable=0;points=[[0,0.5],[1,0.5]];portConstraint=eastwest;" vertex="1" parent="QXNhinaaJkSOpzh1874o-38">
          <mxGeometry y="112" width="290" height="26" as="geometry" />
        </mxCell>
        <mxCell id="QXNhinaaJkSOpzh1874o-44" value="+getEnrolledCourses(): []Courses" style="text;strokeColor=none;fillColor=none;align=left;verticalAlign=top;spacingLeft=4;spacingRight=4;overflow=hidden;rotatable=0;points=[[0,0.5],[1,0.5]];portConstraint=eastwest;" vertex="1" parent="QXNhinaaJkSOpzh1874o-38">
          <mxGeometry y="138" width="290" height="26" as="geometry" />
        </mxCell>
        <mxCell id="QXNhinaaJkSOpzh1874o-45" value="+setStudentId(int): void" style="text;strokeColor=none;fillColor=none;align=left;verticalAlign=top;spacingLeft=4;spacingRight=4;overflow=hidden;rotatable=0;points=[[0,0.5],[1,0.5]];portConstraint=eastwest;" vertex="1" parent="QXNhinaaJkSOpzh1874o-38">
          <mxGeometry y="164" width="290" height="26" as="geometry" />
        </mxCell>
        <mxCell id="QXNhinaaJkSOpzh1874o-46" value="+setEnrolledCourses([]Courses): void" style="text;strokeColor=none;fillColor=none;align=left;verticalAlign=top;spacingLeft=4;spacingRight=4;overflow=hidden;rotatable=0;points=[[0,0.5],[1,0.5]];portConstraint=eastwest;" vertex="1" parent="QXNhinaaJkSOpzh1874o-38">
          <mxGeometry y="190" width="290" height="26" as="geometry" />
        </mxCell>
        <mxCell id="QXNhinaaJkSOpzh1874o-47" value="+changeLanguage(): void" style="text;strokeColor=none;fillColor=none;align=left;verticalAlign=top;spacingLeft=4;spacingRight=4;overflow=hidden;rotatable=0;points=[[0,0.5],[1,0.5]];portConstraint=eastwest;" vertex="1" parent="QXNhinaaJkSOpzh1874o-38">
          <mxGeometry y="216" width="290" height="26" as="geometry" />
        </mxCell>
        <mxCell id="QXNhinaaJkSOpzh1874o-48" value="+changeProfilePic(): void" style="text;strokeColor=none;fillColor=none;align=left;verticalAlign=top;spacingLeft=4;spacingRight=4;overflow=hidden;rotatable=0;points=[[0,0.5],[1,0.5]];portConstraint=eastwest;" vertex="1" parent="QXNhinaaJkSOpzh1874o-38">
          <mxGeometry y="242" width="290" height="26" as="geometry" />
        </mxCell>
        <mxCell id="QXNhinaaJkSOpzh1874o-49" value="+forgetPass(String username): void" style="text;strokeColor=none;fillColor=none;align=left;verticalAlign=top;spacingLeft=4;spacingRight=4;overflow=hidden;rotatable=0;points=[[0,0.5],[1,0.5]];portConstraint=eastwest;" vertex="1" parent="QXNhinaaJkSOpzh1874o-38">
          <mxGeometry y="268" width="290" height="26" as="geometry" />
        </mxCell>
        <mxCell id="QXNhinaaJkSOpzh1874o-50" value="+contactSupport(): void" style="text;strokeColor=none;fillColor=none;align=left;verticalAlign=top;spacingLeft=4;spacingRight=4;overflow=hidden;rotatable=0;points=[[0,0.5],[1,0.5]];portConstraint=eastwest;" vertex="1" parent="QXNhinaaJkSOpzh1874o-38">
          <mxGeometry y="294" width="290" height="26" as="geometry" />
        </mxCell>
        <mxCell id="QXNhinaaJkSOpzh1874o-51" value="+sendMessages(String message): void" style="text;strokeColor=none;fillColor=none;align=left;verticalAlign=top;spacingLeft=4;spacingRight=4;overflow=hidden;rotatable=0;points=[[0,0.5],[1,0.5]];portConstraint=eastwest;" vertex="1" parent="QXNhinaaJkSOpzh1874o-38">
          <mxGeometry y="320" width="290" height="26" as="geometry" />
        </mxCell>
        <mxCell id="QXNhinaaJkSOpzh1874o-52" value="+register(String username, String password): void" style="text;strokeColor=none;fillColor=none;align=left;verticalAlign=top;spacingLeft=4;spacingRight=4;overflow=hidden;rotatable=0;points=[[0,0.5],[1,0.5]];portConstraint=eastwest;" vertex="1" parent="QXNhinaaJkSOpzh1874o-38">
          <mxGeometry y="346" width="290" height="26" as="geometry" />
        </mxCell>
        <mxCell id="QXNhinaaJkSOpzh1874o-53" value="+login(String username, String password): void" style="text;strokeColor=none;fillColor=none;align=left;verticalAlign=top;spacingLeft=4;spacingRight=4;overflow=hidden;rotatable=0;points=[[0,0.5],[1,0.5]];portConstraint=eastwest;" vertex="1" parent="QXNhinaaJkSOpzh1874o-38">
          <mxGeometry y="372" width="290" height="26" as="geometry" />
        </mxCell>
        <mxCell id="QXNhinaaJkSOpzh1874o-54" value="+handleClick(): void" style="text;strokeColor=none;fillColor=none;align=left;verticalAlign=top;spacingLeft=4;spacingRight=4;overflow=hidden;rotatable=0;points=[[0,0.5],[1,0.5]];portConstraint=eastwest;" vertex="1" parent="QXNhinaaJkSOpzh1874o-38">
          <mxGeometry y="398" width="290" height="26" as="geometry" />
        </mxCell>
        <mxCell id="QXNhinaaJkSOpzh1874o-55" value="+logout(): void" style="text;strokeColor=none;fillColor=none;align=left;verticalAlign=top;spacingLeft=4;spacingRight=4;overflow=hidden;rotatable=0;points=[[0,0.5],[1,0.5]];portConstraint=eastwest;" vertex="1" parent="QXNhinaaJkSOpzh1874o-38">
          <mxGeometry y="424" width="290" height="26" as="geometry" />
        </mxCell>
        <mxCell id="QXNhinaaJkSOpzh1874o-56" value="+viewCourses(): void" style="text;strokeColor=none;fillColor=none;align=left;verticalAlign=top;spacingLeft=4;spacingRight=4;overflow=hidden;rotatable=0;points=[[0,0.5],[1,0.5]];portConstraint=eastwest;" vertex="1" parent="QXNhinaaJkSOpzh1874o-38">
          <mxGeometry y="450" width="290" height="26" as="geometry" />
        </mxCell>
        <mxCell id="QXNhinaaJkSOpzh1874o-57" value="+viewGrade(): void" style="text;strokeColor=none;fillColor=none;align=left;verticalAlign=top;spacingLeft=4;spacingRight=4;overflow=hidden;rotatable=0;points=[[0,0.5],[1,0.5]];portConstraint=eastwest;" vertex="1" parent="QXNhinaaJkSOpzh1874o-38">
          <mxGeometry y="476" width="290" height="26" as="geometry" />
        </mxCell>
        <mxCell id="QXNhinaaJkSOpzh1874o-58" value="+getId(): int" style="text;strokeColor=none;fillColor=none;align=left;verticalAlign=top;spacingLeft=4;spacingRight=4;overflow=hidden;rotatable=0;points=[[0,0.5],[1,0.5]];portConstraint=eastwest;" vertex="1" parent="QXNhinaaJkSOpzh1874o-38">
          <mxGeometry y="502" width="290" height="26" as="geometry" />
        </mxCell>
        <mxCell id="QXNhinaaJkSOpzh1874o-59" value="+getUsername(): String" style="text;strokeColor=none;fillColor=none;align=left;verticalAlign=top;spacingLeft=4;spacingRight=4;overflow=hidden;rotatable=0;points=[[0,0.5],[1,0.5]];portConstraint=eastwest;" vertex="1" parent="QXNhinaaJkSOpzh1874o-38">
          <mxGeometry y="528" width="290" height="26" as="geometry" />
        </mxCell>
        <mxCell id="QXNhinaaJkSOpzh1874o-60" value="+getName(): String" style="text;strokeColor=none;fillColor=none;align=left;verticalAlign=top;spacingLeft=4;spacingRight=4;overflow=hidden;rotatable=0;points=[[0,0.5],[1,0.5]];portConstraint=eastwest;" vertex="1" parent="QXNhinaaJkSOpzh1874o-38">
          <mxGeometry y="554" width="290" height="26" as="geometry" />
        </mxCell>
        <mxCell id="QXNhinaaJkSOpzh1874o-61" value="+getPassword(): String" style="text;strokeColor=none;fillColor=none;align=left;verticalAlign=top;spacingLeft=4;spacingRight=4;overflow=hidden;rotatable=0;points=[[0,0.5],[1,0.5]];portConstraint=eastwest;" vertex="1" parent="QXNhinaaJkSOpzh1874o-38">
          <mxGeometry y="580" width="290" height="26" as="geometry" />
        </mxCell>
        <mxCell id="QXNhinaaJkSOpzh1874o-62" value="+getRole(): String" style="text;strokeColor=none;fillColor=none;align=left;verticalAlign=top;spacingLeft=4;spacingRight=4;overflow=hidden;rotatable=0;points=[[0,0.5],[1,0.5]];portConstraint=eastwest;" vertex="1" parent="QXNhinaaJkSOpzh1874o-38">
          <mxGeometry y="606" width="290" height="26" as="geometry" />
        </mxCell>
        <mxCell id="QXNhinaaJkSOpzh1874o-63" value="+getDateOfBirth(): Date" style="text;strokeColor=none;fillColor=none;align=left;verticalAlign=top;spacingLeft=4;spacingRight=4;overflow=hidden;rotatable=0;points=[[0,0.5],[1,0.5]];portConstraint=eastwest;" vertex="1" parent="QXNhinaaJkSOpzh1874o-38">
          <mxGeometry y="632" width="290" height="26" as="geometry" />
        </mxCell>
        <mxCell id="QXNhinaaJkSOpzh1874o-64" value="+getEmail(): String" style="text;strokeColor=none;fillColor=none;align=left;verticalAlign=top;spacingLeft=4;spacingRight=4;overflow=hidden;rotatable=0;points=[[0,0.5],[1,0.5]];portConstraint=eastwest;" vertex="1" parent="QXNhinaaJkSOpzh1874o-38">
          <mxGeometry y="658" width="290" height="26" as="geometry" />
        </mxCell>
        <mxCell id="QXNhinaaJkSOpzh1874o-65" value="+setId(int): void" style="text;strokeColor=none;fillColor=none;align=left;verticalAlign=top;spacingLeft=4;spacingRight=4;overflow=hidden;rotatable=0;points=[[0,0.5],[1,0.5]];portConstraint=eastwest;" vertex="1" parent="QXNhinaaJkSOpzh1874o-38">
          <mxGeometry y="684" width="290" height="26" as="geometry" />
        </mxCell>
        <mxCell id="QXNhinaaJkSOpzh1874o-66" value="+setUsername(String): void" style="text;strokeColor=none;fillColor=none;align=left;verticalAlign=top;spacingLeft=4;spacingRight=4;overflow=hidden;rotatable=0;points=[[0,0.5],[1,0.5]];portConstraint=eastwest;" vertex="1" parent="QXNhinaaJkSOpzh1874o-38">
          <mxGeometry y="710" width="290" height="26" as="geometry" />
        </mxCell>
        <mxCell id="QXNhinaaJkSOpzh1874o-67" value="+setName(String): void" style="text;strokeColor=none;fillColor=none;align=left;verticalAlign=top;spacingLeft=4;spacingRight=4;overflow=hidden;rotatable=0;points=[[0,0.5],[1,0.5]];portConstraint=eastwest;" vertex="1" parent="QXNhinaaJkSOpzh1874o-38">
          <mxGeometry y="736" width="290" height="26" as="geometry" />
        </mxCell>
        <mxCell id="QXNhinaaJkSOpzh1874o-68" value="+setPassword(String): void" style="text;strokeColor=none;fillColor=none;align=left;verticalAlign=top;spacingLeft=4;spacingRight=4;overflow=hidden;rotatable=0;points=[[0,0.5],[1,0.5]];portConstraint=eastwest;" vertex="1" parent="QXNhinaaJkSOpzh1874o-38">
          <mxGeometry y="762" width="290" height="26" as="geometry" />
        </mxCell>
        <mxCell id="QXNhinaaJkSOpzh1874o-69" value="+setRole(String): void" style="text;strokeColor=none;fillColor=none;align=left;verticalAlign=top;spacingLeft=4;spacingRight=4;overflow=hidden;rotatable=0;points=[[0,0.5],[1,0.5]];portConstraint=eastwest;" vertex="1" parent="QXNhinaaJkSOpzh1874o-38">
          <mxGeometry y="788" width="290" height="26" as="geometry" />
        </mxCell>
        <mxCell id="QXNhinaaJkSOpzh1874o-70" value="+setDateOfBirth(Date): void" style="text;strokeColor=none;fillColor=none;align=left;verticalAlign=top;spacingLeft=4;spacingRight=4;overflow=hidden;rotatable=0;points=[[0,0.5],[1,0.5]];portConstraint=eastwest;" vertex="1" parent="QXNhinaaJkSOpzh1874o-38">
          <mxGeometry y="814" width="290" height="26" as="geometry" />
        </mxCell>
        <mxCell id="QXNhinaaJkSOpzh1874o-71" value="+setEmail(String): void" style="text;strokeColor=none;fillColor=none;align=left;verticalAlign=top;spacingLeft=4;spacingRight=4;overflow=hidden;rotatable=0;points=[[0,0.5],[1,0.5]];portConstraint=eastwest;" vertex="1" parent="QXNhinaaJkSOpzh1874o-38">
          <mxGeometry y="840" width="290" height="26" as="geometry" />
        </mxCell>
        <mxCell id="QXNhinaaJkSOpzh1874o-72" value="Course" style="swimlane;fontStyle=1;childLayout=stackLayout;horizontal=1;startSize=26;horizontalStack=0;resizeParent=1;resizeParentMax=0;resizeLast=0;collapsible=1;marginBottom=0;" vertex="1" parent="1">
          <mxGeometry x="-220" y="-1070" width="360" height="684" as="geometry" />
        </mxCell>
        <mxCell id="QXNhinaaJkSOpzh1874o-73" value="-id: String" style="text;strokeColor=none;fillColor=none;align=left;verticalAlign=top;spacingLeft=4;spacingRight=4;overflow=hidden;rotatable=0;points=[[0,0.5],[1,0.5]];portConstraint=eastwest;" vertex="1" parent="QXNhinaaJkSOpzh1874o-72">
          <mxGeometry y="26" width="360" height="26" as="geometry" />
        </mxCell>
        <mxCell id="QXNhinaaJkSOpzh1874o-74" value="-name: String" style="text;strokeColor=none;fillColor=none;align=left;verticalAlign=top;spacingLeft=4;spacingRight=4;overflow=hidden;rotatable=0;points=[[0,0.5],[1,0.5]];portConstraint=eastwest;" vertex="1" parent="QXNhinaaJkSOpzh1874o-72">
          <mxGeometry y="52" width="360" height="26" as="geometry" />
        </mxCell>
        <mxCell id="QXNhinaaJkSOpzh1874o-75" value="-instructor: Instructor" style="text;strokeColor=none;fillColor=none;align=left;verticalAlign=top;spacingLeft=4;spacingRight=4;overflow=hidden;rotatable=0;points=[[0,0.5],[1,0.5]];portConstraint=eastwest;" vertex="1" parent="QXNhinaaJkSOpzh1874o-72">
          <mxGeometry y="78" width="360" height="26" as="geometry" />
        </mxCell>
        <mxCell id="QXNhinaaJkSOpzh1874o-76" value="-students: []Students" style="text;strokeColor=none;fillColor=none;align=left;verticalAlign=top;spacingLeft=4;spacingRight=4;overflow=hidden;rotatable=0;points=[[0,0.5],[1,0.5]];portConstraint=eastwest;" vertex="1" parent="QXNhinaaJkSOpzh1874o-72">
          <mxGeometry y="104" width="360" height="26" as="geometry" />
        </mxCell>
        <mxCell id="QXNhinaaJkSOpzh1874o-77" value="-tasks: []Task" style="text;strokeColor=none;fillColor=none;align=left;verticalAlign=top;spacingLeft=4;spacingRight=4;overflow=hidden;rotatable=0;points=[[0,0.5],[1,0.5]];portConstraint=eastwest;" vertex="1" parent="QXNhinaaJkSOpzh1874o-72">
          <mxGeometry y="130" width="360" height="26" as="geometry" />
        </mxCell>
        <mxCell id="QXNhinaaJkSOpzh1874o-78" value="" style="line;strokeWidth=1;fillColor=none;align=left;verticalAlign=middle;spacingTop=-1;spacingLeft=3;spacingRight=3;rotatable=0;labelPosition=right;points=[];portConstraint=eastwest;" vertex="1" parent="QXNhinaaJkSOpzh1874o-72">
          <mxGeometry y="156" width="360" height="8" as="geometry" />
        </mxCell>
        <mxCell id="QXNhinaaJkSOpzh1874o-79" value="+addStudent(Student student): void" style="text;strokeColor=none;fillColor=none;align=left;verticalAlign=top;spacingLeft=4;spacingRight=4;overflow=hidden;rotatable=0;points=[[0,0.5],[1,0.5]];portConstraint=eastwest;" vertex="1" parent="QXNhinaaJkSOpzh1874o-72">
          <mxGeometry y="164" width="360" height="26" as="geometry" />
        </mxCell>
        <mxCell id="QXNhinaaJkSOpzh1874o-80" value="+deleteStudent(Student student): void" style="text;strokeColor=none;fillColor=none;align=left;verticalAlign=top;spacingLeft=4;spacingRight=4;overflow=hidden;rotatable=0;points=[[0,0.5],[1,0.5]];portConstraint=eastwest;" vertex="1" parent="QXNhinaaJkSOpzh1874o-72">
          <mxGeometry y="190" width="360" height="26" as="geometry" />
        </mxCell>
        <mxCell id="QXNhinaaJkSOpzh1874o-81" value="+viewStudents(): []Students" style="text;strokeColor=none;fillColor=none;align=left;verticalAlign=top;spacingLeft=4;spacingRight=4;overflow=hidden;rotatable=0;points=[[0,0.5],[1,0.5]];portConstraint=eastwest;" vertex="1" parent="QXNhinaaJkSOpzh1874o-72">
          <mxGeometry y="216" width="360" height="26" as="geometry" />
        </mxCell>
        <mxCell id="QXNhinaaJkSOpzh1874o-82" value="+selectStudents(): Student" style="text;strokeColor=none;fillColor=none;align=left;verticalAlign=top;spacingLeft=4;spacingRight=4;overflow=hidden;rotatable=0;points=[[0,0.5],[1,0.5]];portConstraint=eastwest;" vertex="1" parent="QXNhinaaJkSOpzh1874o-72">
          <mxGeometry y="242" width="360" height="26" as="geometry" />
        </mxCell>
        <mxCell id="QXNhinaaJkSOpzh1874o-83" value="+addTask(String title, String description, Course course): Task" style="text;strokeColor=none;fillColor=none;align=left;verticalAlign=top;spacingLeft=4;spacingRight=4;overflow=hidden;rotatable=0;points=[[0,0.5],[1,0.5]];portConstraint=eastwest;" vertex="1" parent="QXNhinaaJkSOpzh1874o-72">
          <mxGeometry y="268" width="360" height="26" as="geometry" />
        </mxCell>
        <mxCell id="QXNhinaaJkSOpzh1874o-84" value="+updateTask(Task task, String title, String description): void" style="text;strokeColor=none;fillColor=none;align=left;verticalAlign=top;spacingLeft=4;spacingRight=4;overflow=hidden;rotatable=0;points=[[0,0.5],[1,0.5]];portConstraint=eastwest;" vertex="1" parent="QXNhinaaJkSOpzh1874o-72">
          <mxGeometry y="294" width="360" height="26" as="geometry" />
        </mxCell>
        <mxCell id="QXNhinaaJkSOpzh1874o-85" value="+deleteTask(Task task): void" style="text;strokeColor=none;fillColor=none;align=left;verticalAlign=top;spacingLeft=4;spacingRight=4;overflow=hidden;rotatable=0;points=[[0,0.5],[1,0.5]];portConstraint=eastwest;" vertex="1" parent="QXNhinaaJkSOpzh1874o-72">
          <mxGeometry y="320" width="360" height="26" as="geometry" />
        </mxCell>
        <mxCell id="QXNhinaaJkSOpzh1874o-86" value="+selectTask(): Task" style="text;strokeColor=none;fillColor=none;align=left;verticalAlign=top;spacingLeft=4;spacingRight=4;overflow=hidden;rotatable=0;points=[[0,0.5],[1,0.5]];portConstraint=eastwest;" vertex="1" parent="QXNhinaaJkSOpzh1874o-72">
          <mxGeometry y="346" width="360" height="26" as="geometry" />
        </mxCell>
        <mxCell id="QXNhinaaJkSOpzh1874o-87" value="+addMaterial(Material material): void" style="text;strokeColor=none;fillColor=none;align=left;verticalAlign=top;spacingLeft=4;spacingRight=4;overflow=hidden;rotatable=0;points=[[0,0.5],[1,0.5]];portConstraint=eastwest;" vertex="1" parent="QXNhinaaJkSOpzh1874o-72">
          <mxGeometry y="372" width="360" height="26" as="geometry" />
        </mxCell>
        <mxCell id="QXNhinaaJkSOpzh1874o-88" value="+deleteMaterial(Material material): void" style="text;strokeColor=none;fillColor=none;align=left;verticalAlign=top;spacingLeft=4;spacingRight=4;overflow=hidden;rotatable=0;points=[[0,0.5],[1,0.5]];portConstraint=eastwest;" vertex="1" parent="QXNhinaaJkSOpzh1874o-72">
          <mxGeometry y="398" width="360" height="26" as="geometry" />
        </mxCell>
        <mxCell id="QXNhinaaJkSOpzh1874o-89" value="+getId(): String" style="text;strokeColor=none;fillColor=none;align=left;verticalAlign=top;spacingLeft=4;spacingRight=4;overflow=hidden;rotatable=0;points=[[0,0.5],[1,0.5]];portConstraint=eastwest;" vertex="1" parent="QXNhinaaJkSOpzh1874o-72">
          <mxGeometry y="424" width="360" height="26" as="geometry" />
        </mxCell>
        <mxCell id="QXNhinaaJkSOpzh1874o-90" value="+getName(): String" style="text;strokeColor=none;fillColor=none;align=left;verticalAlign=top;spacingLeft=4;spacingRight=4;overflow=hidden;rotatable=0;points=[[0,0.5],[1,0.5]];portConstraint=eastwest;" vertex="1" parent="QXNhinaaJkSOpzh1874o-72">
          <mxGeometry y="450" width="360" height="26" as="geometry" />
        </mxCell>
        <mxCell id="QXNhinaaJkSOpzh1874o-91" value="+getInstructor(): Instructor" style="text;strokeColor=none;fillColor=none;align=left;verticalAlign=top;spacingLeft=4;spacingRight=4;overflow=hidden;rotatable=0;points=[[0,0.5],[1,0.5]];portConstraint=eastwest;" vertex="1" parent="QXNhinaaJkSOpzh1874o-72">
          <mxGeometry y="476" width="360" height="26" as="geometry" />
        </mxCell>
        <mxCell id="QXNhinaaJkSOpzh1874o-92" value="+getStudents(): []Students" style="text;strokeColor=none;fillColor=none;align=left;verticalAlign=top;spacingLeft=4;spacingRight=4;overflow=hidden;rotatable=0;points=[[0,0.5],[1,0.5]];portConstraint=eastwest;" vertex="1" parent="QXNhinaaJkSOpzh1874o-72">
          <mxGeometry y="502" width="360" height="26" as="geometry" />
        </mxCell>
        <mxCell id="QXNhinaaJkSOpzh1874o-93" value="+getTasks(): []Task" style="text;strokeColor=none;fillColor=none;align=left;verticalAlign=top;spacingLeft=4;spacingRight=4;overflow=hidden;rotatable=0;points=[[0,0.5],[1,0.5]];portConstraint=eastwest;" vertex="1" parent="QXNhinaaJkSOpzh1874o-72">
          <mxGeometry y="528" width="360" height="26" as="geometry" />
        </mxCell>
        <mxCell id="QXNhinaaJkSOpzh1874o-94" value="+setId(String): void" style="text;strokeColor=none;fillColor=none;align=left;verticalAlign=top;spacingLeft=4;spacingRight=4;overflow=hidden;rotatable=0;points=[[0,0.5],[1,0.5]];portConstraint=eastwest;" vertex="1" parent="QXNhinaaJkSOpzh1874o-72">
          <mxGeometry y="554" width="360" height="26" as="geometry" />
        </mxCell>
        <mxCell id="QXNhinaaJkSOpzh1874o-95" value="+setName(String): void" style="text;strokeColor=none;fillColor=none;align=left;verticalAlign=top;spacingLeft=4;spacingRight=4;overflow=hidden;rotatable=0;points=[[0,0.5],[1,0.5]];portConstraint=eastwest;" vertex="1" parent="QXNhinaaJkSOpzh1874o-72">
          <mxGeometry y="580" width="360" height="26" as="geometry" />
        </mxCell>
        <mxCell id="QXNhinaaJkSOpzh1874o-96" value="+setInstructor(Instructor): void" style="text;strokeColor=none;fillColor=none;align=left;verticalAlign=top;spacingLeft=4;spacingRight=4;overflow=hidden;rotatable=0;points=[[0,0.5],[1,0.5]];portConstraint=eastwest;" vertex="1" parent="QXNhinaaJkSOpzh1874o-72">
          <mxGeometry y="606" width="360" height="26" as="geometry" />
        </mxCell>
        <mxCell id="QXNhinaaJkSOpzh1874o-97" value="+setStudents([]Students): void" style="text;strokeColor=none;fillColor=none;align=left;verticalAlign=top;spacingLeft=4;spacingRight=4;overflow=hidden;rotatable=0;points=[[0,0.5],[1,0.5]];portConstraint=eastwest;" vertex="1" parent="QXNhinaaJkSOpzh1874o-72">
          <mxGeometry y="632" width="360" height="26" as="geometry" />
        </mxCell>
        <mxCell id="QXNhinaaJkSOpzh1874o-98" value="+setTasks([]Task): void" style="text;strokeColor=none;fillColor=none;align=left;verticalAlign=top;spacingLeft=4;spacingRight=4;overflow=hidden;rotatable=0;points=[[0,0.5],[1,0.5]];portConstraint=eastwest;" vertex="1" parent="QXNhinaaJkSOpzh1874o-72">
          <mxGeometry y="658" width="360" height="26" as="geometry" />
        </mxCell>
        <mxCell id="QXNhinaaJkSOpzh1874o-99" value="Task" style="swimlane;fontStyle=1;childLayout=stackLayout;horizontal=1;startSize=26;horizontalStack=0;resizeParent=1;resizeParentMax=0;resizeLast=0;collapsible=1;marginBottom=0;" vertex="1" parent="1">
          <mxGeometry x="-500" y="-880" width="220" height="450" as="geometry" />
        </mxCell>
        <mxCell id="QXNhinaaJkSOpzh1874o-100" value="-task_id: INTEGER" style="text;strokeColor=none;fillColor=none;align=left;verticalAlign=top;spacingLeft=4;spacingRight=4;overflow=hidden;rotatable=0;points=[[0,0.5],[1,0.5]];portConstraint=eastwest;" vertex="1" parent="QXNhinaaJkSOpzh1874o-99">
          <mxGeometry y="26" width="220" height="26" as="geometry" />
        </mxCell>
        <mxCell id="QXNhinaaJkSOpzh1874o-101" value="-task_name: STRING(128)" style="text;strokeColor=none;fillColor=none;align=left;verticalAlign=top;spacingLeft=4;spacingRight=4;overflow=hidden;rotatable=0;points=[[0,0.5],[1,0.5]];portConstraint=eastwest;" vertex="1" parent="QXNhinaaJkSOpzh1874o-99">
          <mxGeometry y="52" width="220" height="26" as="geometry" />
        </mxCell>
        <mxCell id="QXNhinaaJkSOpzh1874o-102" value="-description: STRING" style="text;strokeColor=none;fillColor=none;align=left;verticalAlign=top;spacingLeft=4;spacingRight=4;overflow=hidden;rotatable=0;points=[[0,0.5],[1,0.5]];portConstraint=eastwest;" vertex="1" parent="QXNhinaaJkSOpzh1874o-99">
          <mxGeometry y="78" width="220" height="26" as="geometry" />
        </mxCell>
        <mxCell id="QXNhinaaJkSOpzh1874o-103" value="-has_multiple_attempt: CHAR(1)" style="text;strokeColor=none;fillColor=none;align=left;verticalAlign=top;spacingLeft=4;spacingRight=4;overflow=hidden;rotatable=0;points=[[0,0.5],[1,0.5]];portConstraint=eastwest;" vertex="1" parent="QXNhinaaJkSOpzh1874o-99">
          <mxGeometry y="104" width="220" height="26" as="geometry" />
        </mxCell>
        <mxCell id="QXNhinaaJkSOpzh1874o-104" value="-attempts: INTEGER" style="text;strokeColor=none;fillColor=none;align=left;verticalAlign=top;spacingLeft=4;spacingRight=4;overflow=hidden;rotatable=0;points=[[0,0.5],[1,0.5]];portConstraint=eastwest;" vertex="1" parent="QXNhinaaJkSOpzh1874o-99">
          <mxGeometry y="130" width="220" height="26" as="geometry" />
        </mxCell>
        <mxCell id="QXNhinaaJkSOpzh1874o-105" value="-grade: INTEGER" style="text;strokeColor=none;fillColor=none;align=left;verticalAlign=top;spacingLeft=4;spacingRight=4;overflow=hidden;rotatable=0;points=[[0,0.5],[1,0.5]];portConstraint=eastwest;" vertex="1" parent="QXNhinaaJkSOpzh1874o-99">
          <mxGeometry y="156" width="220" height="26" as="geometry" />
        </mxCell>
        <mxCell id="QXNhinaaJkSOpzh1874o-106" value="-start_date: DATE" style="text;strokeColor=none;fillColor=none;align=left;verticalAlign=top;spacingLeft=4;spacingRight=4;overflow=hidden;rotatable=0;points=[[0,0.5],[1,0.5]];portConstraint=eastwest;" vertex="1" parent="QXNhinaaJkSOpzh1874o-99">
          <mxGeometry y="182" width="220" height="26" as="geometry" />
        </mxCell>
        <mxCell id="QXNhinaaJkSOpzh1874o-107" value="-due_date: DATE" style="text;strokeColor=none;fillColor=none;align=left;verticalAlign=top;spacingLeft=4;spacingRight=4;overflow=hidden;rotatable=0;points=[[0,0.5],[1,0.5]];portConstraint=eastwest;" vertex="1" parent="QXNhinaaJkSOpzh1874o-99">
          <mxGeometry y="208" width="220" height="26" as="geometry" />
        </mxCell>
        <mxCell id="QXNhinaaJkSOpzh1874o-108" value="-late_submission_policy: BOOLEAN" style="text;strokeColor=none;fillColor=none;align=left;verticalAlign=top;spacingLeft=4;spacingRight=4;overflow=hidden;rotatable=0;points=[[0,0.5],[1,0.5]];portConstraint=eastwest;" vertex="1" parent="QXNhinaaJkSOpzh1874o-99">
          <mxGeometry y="234" width="220" height="26" as="geometry" />
        </mxCell>
        <mxCell id="QXNhinaaJkSOpzh1874o-109" value="-close_date: DATE" style="text;strokeColor=none;fillColor=none;align=left;verticalAlign=top;spacingLeft=4;spacingRight=4;overflow=hidden;rotatable=0;points=[[0,0.5],[1,0.5]];portConstraint=eastwest;" vertex="1" parent="QXNhinaaJkSOpzh1874o-99">
          <mxGeometry y="260" width="220" height="26" as="geometry" />
        </mxCell>
        <mxCell id="QXNhinaaJkSOpzh1874o-110" value="-course_id: INTEGER" style="text;strokeColor=none;fillColor=none;align=left;verticalAlign=top;spacingLeft=4;spacingRight=4;overflow=hidden;rotatable=0;points=[[0,0.5],[1,0.5]];portConstraint=eastwest;" vertex="1" parent="QXNhinaaJkSOpzh1874o-99">
          <mxGeometry y="286" width="220" height="26" as="geometry" />
        </mxCell>
        <mxCell id="QXNhinaaJkSOpzh1874o-111" value="" style="line;strokeWidth=1;fillColor=none;align=left;verticalAlign=middle;spacingTop=-1;spacingLeft=3;spacingRight=3;rotatable=0;labelPosition=right;points=[];portConstraint=eastwest;" vertex="1" parent="QXNhinaaJkSOpzh1874o-99">
          <mxGeometry y="312" width="220" height="8" as="geometry" />
        </mxCell>
        <mxCell id="QXNhinaaJkSOpzh1874o-112" value="+createTask(): void" style="text;strokeColor=none;fillColor=none;align=left;verticalAlign=top;spacingLeft=4;spacingRight=4;overflow=hidden;rotatable=0;points=[[0,0.5],[1,0.5]];portConstraint=eastwest;" vertex="1" parent="QXNhinaaJkSOpzh1874o-99">
          <mxGeometry y="320" width="220" height="26" as="geometry" />
        </mxCell>
        <mxCell id="QXNhinaaJkSOpzh1874o-113" value="+getTaskById(): void" style="text;strokeColor=none;fillColor=none;align=left;verticalAlign=top;spacingLeft=4;spacingRight=4;overflow=hidden;rotatable=0;points=[[0,0.5],[1,0.5]];portConstraint=eastwest;" vertex="1" parent="QXNhinaaJkSOpzh1874o-99">
          <mxGeometry y="346" width="220" height="26" as="geometry" />
        </mxCell>
        <mxCell id="QXNhinaaJkSOpzh1874o-114" value="+getAllTasks(): void" style="text;strokeColor=none;fillColor=none;align=left;verticalAlign=top;spacingLeft=4;spacingRight=4;overflow=hidden;rotatable=0;points=[[0,0.5],[1,0.5]];portConstraint=eastwest;" vertex="1" parent="QXNhinaaJkSOpzh1874o-99">
          <mxGeometry y="372" width="220" height="26" as="geometry" />
        </mxCell>
        <mxCell id="QXNhinaaJkSOpzh1874o-115" value="+updateTask(): void" style="text;strokeColor=none;fillColor=none;align=left;verticalAlign=top;spacingLeft=4;spacingRight=4;overflow=hidden;rotatable=0;points=[[0,0.5],[1,0.5]];portConstraint=eastwest;" vertex="1" parent="QXNhinaaJkSOpzh1874o-99">
          <mxGeometry y="398" width="220" height="26" as="geometry" />
        </mxCell>
        <mxCell id="QXNhinaaJkSOpzh1874o-116" value="+deleteTask(): void" style="text;strokeColor=none;fillColor=none;align=left;verticalAlign=top;spacingLeft=4;spacingRight=4;overflow=hidden;rotatable=0;points=[[0,0.5],[1,0.5]];portConstraint=eastwest;" vertex="1" parent="QXNhinaaJkSOpzh1874o-99">
          <mxGeometry y="424" width="220" height="26" as="geometry" />
        </mxCell>
        <mxCell id="QXNhinaaJkSOpzh1874o-117" value="Feedback" style="swimlane;fontStyle=1;childLayout=stackLayout;horizontal=1;startSize=26;horizontalStack=0;resizeParent=1;resizeParentMax=0;resizeLast=0;collapsible=1;marginBottom=0;" vertex="1" parent="1">
          <mxGeometry x="-790" y="-885" width="190" height="372" as="geometry" />
        </mxCell>
        <mxCell id="QXNhinaaJkSOpzh1874o-118" value="-fed_id: INTEGER" style="text;strokeColor=none;fillColor=none;align=left;verticalAlign=top;spacingLeft=4;spacingRight=4;overflow=hidden;rotatable=0;points=[[0,0.5],[1,0.5]];portConstraint=eastwest;" vertex="1" parent="QXNhinaaJkSOpzh1874o-117">
          <mxGeometry y="26" width="190" height="26" as="geometry" />
        </mxCell>
        <mxCell id="QXNhinaaJkSOpzh1874o-119" value="-repo_id: INTEGER" style="text;strokeColor=none;fillColor=none;align=left;verticalAlign=top;spacingLeft=4;spacingRight=4;overflow=hidden;rotatable=0;points=[[0,0.5],[1,0.5]];portConstraint=eastwest;" vertex="1" parent="QXNhinaaJkSOpzh1874o-117">
          <mxGeometry y="52" width="190" height="26" as="geometry" />
        </mxCell>
        <mxCell id="QXNhinaaJkSOpzh1874o-120" value="-message: STRING" style="text;strokeColor=none;fillColor=none;align=left;verticalAlign=top;spacingLeft=4;spacingRight=4;overflow=hidden;rotatable=0;points=[[0,0.5],[1,0.5]];portConstraint=eastwest;" vertex="1" parent="QXNhinaaJkSOpzh1874o-117">
          <mxGeometry y="78" width="190" height="26" as="geometry" />
        </mxCell>
        <mxCell id="QXNhinaaJkSOpzh1874o-121" value="-stu_id: STRING(128)" style="text;strokeColor=none;fillColor=none;align=left;verticalAlign=top;spacingLeft=4;spacingRight=4;overflow=hidden;rotatable=0;points=[[0,0.5],[1,0.5]];portConstraint=eastwest;" vertex="1" parent="QXNhinaaJkSOpzh1874o-117">
          <mxGeometry y="104" width="190" height="26" as="geometry" />
        </mxCell>
        <mxCell id="QXNhinaaJkSOpzh1874o-122" value="-ins_id: STRING(128)" style="text;strokeColor=none;fillColor=none;align=left;verticalAlign=top;spacingLeft=4;spacingRight=4;overflow=hidden;rotatable=0;points=[[0,0.5],[1,0.5]];portConstraint=eastwest;" vertex="1" parent="QXNhinaaJkSOpzh1874o-117">
          <mxGeometry y="130" width="190" height="26" as="geometry" />
        </mxCell>
        <mxCell id="QXNhinaaJkSOpzh1874o-123" value="-task_id: INTEGER" style="text;strokeColor=none;fillColor=none;align=left;verticalAlign=top;spacingLeft=4;spacingRight=4;overflow=hidden;rotatable=0;points=[[0,0.5],[1,0.5]];portConstraint=eastwest;" vertex="1" parent="QXNhinaaJkSOpzh1874o-117">
          <mxGeometry y="156" width="190" height="26" as="geometry" />
        </mxCell>
        <mxCell id="QXNhinaaJkSOpzh1874o-124" value="-source: ENUM(&#39;human&#39;, &#39;bot&#39;)" style="text;strokeColor=none;fillColor=none;align=left;verticalAlign=top;spacingLeft=4;spacingRight=4;overflow=hidden;rotatable=0;points=[[0,0.5],[1,0.5]];portConstraint=eastwest;" vertex="1" parent="QXNhinaaJkSOpzh1874o-117">
          <mxGeometry y="182" width="190" height="26" as="geometry" />
        </mxCell>
        <mxCell id="QXNhinaaJkSOpzh1874o-125" value="-commit_id: STRING(128)" style="text;strokeColor=none;fillColor=none;align=left;verticalAlign=top;spacingLeft=4;spacingRight=4;overflow=hidden;rotatable=0;points=[[0,0.5],[1,0.5]];portConstraint=eastwest;" vertex="1" parent="QXNhinaaJkSOpzh1874o-117">
          <mxGeometry y="208" width="190" height="26" as="geometry" />
        </mxCell>
        <mxCell id="QXNhinaaJkSOpzh1874o-126" value="" style="line;strokeWidth=1;fillColor=none;align=left;verticalAlign=middle;spacingTop=-1;spacingLeft=3;spacingRight=3;rotatable=0;labelPosition=right;points=[];portConstraint=eastwest;" vertex="1" parent="QXNhinaaJkSOpzh1874o-117">
          <mxGeometry y="234" width="190" height="8" as="geometry" />
        </mxCell>
        <mxCell id="QXNhinaaJkSOpzh1874o-127" value="+createFeedback(): void" style="text;strokeColor=none;fillColor=none;align=left;verticalAlign=top;spacingLeft=4;spacingRight=4;overflow=hidden;rotatable=0;points=[[0,0.5],[1,0.5]];portConstraint=eastwest;" vertex="1" parent="QXNhinaaJkSOpzh1874o-117">
          <mxGeometry y="242" width="190" height="26" as="geometry" />
        </mxCell>
        <mxCell id="QXNhinaaJkSOpzh1874o-128" value="+getFeedbackById(): void" style="text;strokeColor=none;fillColor=none;align=left;verticalAlign=top;spacingLeft=4;spacingRight=4;overflow=hidden;rotatable=0;points=[[0,0.5],[1,0.5]];portConstraint=eastwest;" vertex="1" parent="QXNhinaaJkSOpzh1874o-117">
          <mxGeometry y="268" width="190" height="26" as="geometry" />
        </mxCell>
        <mxCell id="QXNhinaaJkSOpzh1874o-129" value="+getAllFeedbacks(): void" style="text;strokeColor=none;fillColor=none;align=left;verticalAlign=top;spacingLeft=4;spacingRight=4;overflow=hidden;rotatable=0;points=[[0,0.5],[1,0.5]];portConstraint=eastwest;" vertex="1" parent="QXNhinaaJkSOpzh1874o-117">
          <mxGeometry y="294" width="190" height="26" as="geometry" />
        </mxCell>
        <mxCell id="QXNhinaaJkSOpzh1874o-130" value="+updateFeedback(): void" style="text;strokeColor=none;fillColor=none;align=left;verticalAlign=top;spacingLeft=4;spacingRight=4;overflow=hidden;rotatable=0;points=[[0,0.5],[1,0.5]];portConstraint=eastwest;" vertex="1" parent="QXNhinaaJkSOpzh1874o-117">
          <mxGeometry y="320" width="190" height="26" as="geometry" />
        </mxCell>
        <mxCell id="QXNhinaaJkSOpzh1874o-131" value="+deleteFeedback(): void" style="text;strokeColor=none;fillColor=none;align=left;verticalAlign=top;spacingLeft=4;spacingRight=4;overflow=hidden;rotatable=0;points=[[0,0.5],[1,0.5]];portConstraint=eastwest;" vertex="1" parent="QXNhinaaJkSOpzh1874o-117">
          <mxGeometry y="346" width="190" height="26" as="geometry" />
        </mxCell>
      </root>
    </mxGraphModel>
  </diagram>
</mxfile>
